<svg width="312" height="61" viewBox="0 0 312 61" fill="none" xmlns="http://www.w3.org/2000/svg">
<rect x="23.6074" y="48.5273" width="24.5793" height="12.2897" rx="6.14483" fill="#3BBD0D"/>
<rect x="50.1074" y="48.5273" width="16.5142" height="12.2897" rx="6.14483" fill="#FF0000"/>
<rect x="50.1074" y="0.136719" width="16.5142" height="12.2897" rx="6.14483" fill="#FF6C02"/>
<rect x="0.949219" y="36.6221" width="16.5142" height="12.2897" rx="6.14483" fill="#3BBD0D"/>
<path d="M29.9436 24.333C25.1054 24.333 20.4654 26.255 17.0443 29.6761C13.6231 33.0972 11.7012 37.7373 11.7012 42.5755C11.7012 47.4137 13.6231 52.0537 17.0443 55.4749C20.4654 58.896 25.1054 60.818 29.9436 60.818L29.9436 48.5036C28.3714 48.5036 26.8636 47.879 25.7519 46.7673C24.6401 45.6555 24.0156 44.1477 24.0156 42.5755C24.0156 41.0033 24.6401 39.4954 25.7519 38.3837C26.8636 37.272 28.3714 36.6474 29.9436 36.6474V24.333Z" fill="#3BBD0D"/>
<rect x="23.6074" y="24.333" width="43.0138" height="12.2897" rx="6.14483" fill="#FF0000"/>
<rect x="23.6074" y="0.136719" width="24.5793" height="12.2897" rx="6.14483" fill="#FF0000"/>
<path d="M29.9436 0.136719C25.1054 0.136719 20.4654 2.05869 17.0443 5.47982C13.6231 8.90094 11.7012 13.541 11.7012 18.3792C11.7012 23.2174 13.6231 27.8574 17.0443 31.2786C20.4654 34.6997 25.1054 36.6217 29.9436 36.6217L29.9436 24.3073C28.3714 24.3073 26.8636 23.6827 25.7519 22.571C24.6401 21.4593 24.0156 19.9514 24.0156 18.3792C24.0156 16.807 24.6401 15.2991 25.7519 14.1874C26.8636 13.0757 28.3714 12.4511 29.9436 12.4511V0.136719Z" fill="#FF0000"/>
<path d="M81.79 39C79.45 39 77.71 38.49 76.57 37.47C75.45 36.43 74.89 34.85 74.89 32.73V24.27C74.89 22.15 75.45 20.58 76.57 19.56C77.71 18.52 79.45 18 81.79 18H89.02V19.74H81.79C80.17 19.74 78.97 20.11 78.19 20.85C77.43 21.59 77.05 22.73 77.05 24.27V27.63H87.49V29.37H77.05V32.73C77.05 34.27 77.43 35.41 78.19 36.15C78.97 36.89 80.17 37.26 81.79 37.26H89.2V39H81.79ZM91.9059 30.9H99.7659V32.37H91.9059V30.9ZM104.268 18H105.558C106.438 18 107.148 18.2 107.688 18.6C108.248 18.98 108.788 19.67 109.308 20.67L113.748 29.16L118.188 20.67C118.708 19.67 119.238 18.98 119.778 18.6C120.338 18.2 121.058 18 121.938 18H123.228V39H121.188V20.16C120.908 20.2 120.658 20.31 120.438 20.49C120.238 20.65 120.028 20.94 119.808 21.36L113.748 32.76L107.688 21.36C107.448 20.92 107.228 20.62 107.028 20.46C106.828 20.28 106.588 20.18 106.308 20.16V39H104.268V18ZM136.286 39.33C133.626 39.33 131.586 38.68 130.166 37.38C128.746 36.06 128.036 34.16 128.036 31.68V25.32C128.036 22.84 128.746 20.95 130.166 19.65C131.586 18.33 133.626 17.67 136.286 17.67C138.946 17.67 140.986 18.33 142.406 19.65C143.826 20.95 144.536 22.84 144.536 25.32V31.68C144.536 34.16 143.826 36.06 142.406 37.38C140.986 38.68 138.946 39.33 136.286 39.33ZM136.286 37.59C138.246 37.59 139.746 37.08 140.786 36.06C141.846 35.04 142.376 33.58 142.376 31.68V25.32C142.376 23.42 141.846 21.96 140.786 20.94C139.746 19.92 138.246 19.41 136.286 19.41C134.326 19.41 132.816 19.92 131.756 20.94C130.716 21.96 130.196 23.42 130.196 25.32V31.68C130.196 33.58 130.716 35.04 131.756 36.06C132.816 37.08 134.326 37.59 136.286 37.59ZM165.497 18V35.88C165.497 36.94 165.277 37.73 164.837 38.25C164.397 38.75 163.717 39 162.797 39H161.267L151.397 21.24V39H149.327V18H151.907L162.407 37.11H162.617C162.917 37.11 163.127 37 163.247 36.78C163.367 36.56 163.427 36.17 163.427 35.61V18H165.497ZM179.14 26.07C180.64 26.27 181.79 26.77 182.59 27.57C183.39 28.37 184.07 29.69 184.63 31.53L186.73 39H184.57L182.5 31.71C182.22 30.73 181.89 29.97 181.51 29.43C181.15 28.87 180.66 28.46 180.04 28.2C179.42 27.94 178.59 27.77 177.55 27.69L172.99 32.4V39H170.83V18H172.99V29.79L184.27 18H186.94L179.14 26.07ZM197.982 39.33C195.502 39.33 193.552 38.8 192.132 37.74C190.732 36.66 190.032 35.18 190.032 33.3V18H192.192V33.3C192.192 34.64 192.702 35.69 193.722 36.45C194.742 37.21 196.162 37.59 197.982 37.59C199.802 37.59 201.222 37.21 202.242 36.45C203.262 35.69 203.772 34.64 203.772 33.3V18H205.932V33.3C205.932 35.18 205.222 36.66 203.802 37.74C202.402 38.8 200.462 39.33 197.982 39.33Z" fill="#3BBD0D"/>
<path d="M215.139 30.06L208.119 18H212.079L216.999 26.82L221.799 18H225.789L218.679 30.06V39H215.139V30.06ZM236.758 33.48H228.148L226.498 39H222.958L228.208 21.99C228.548 20.87 228.898 20 229.258 19.38C229.638 18.76 230.078 18.32 230.578 18.06C231.078 17.78 231.708 17.64 232.468 17.64C233.208 17.64 233.828 17.78 234.328 18.06C234.828 18.32 235.268 18.76 235.648 19.38C236.028 20 236.388 20.87 236.728 21.99L241.948 39H238.408L236.758 33.48ZM235.978 30.84L233.368 22.05C233.248 21.65 233.118 21.36 232.978 21.18C232.858 21 232.688 20.91 232.468 20.91C232.248 20.91 232.068 21 231.928 21.18C231.788 21.36 231.658 21.65 231.538 22.05L228.928 30.84H235.978ZM262.218 18V34.65C262.218 36.09 261.918 37.18 261.318 37.92C260.738 38.64 259.808 39 258.528 39H256.038L248.628 23.55V39H245.298V18H249.348L257.898 35.97H258.048C258.368 35.97 258.588 35.84 258.708 35.58C258.828 35.3 258.888 34.82 258.888 34.14V18H262.218ZM273.424 39C270.944 39 269.144 38.46 268.024 37.38C266.924 36.28 266.374 34.67 266.374 32.55V18H269.914V32.55C269.914 33.81 270.194 34.74 270.754 35.34C271.334 35.92 272.224 36.21 273.424 36.21H280.144V39H273.424ZM283.648 18H287.188V39H283.648V18ZM302.065 26.25C303.005 26.45 303.775 26.77 304.375 27.21C304.975 27.65 305.485 28.25 305.905 29.01C306.345 29.77 306.785 30.78 307.225 32.04L309.535 39H305.965L303.745 32.37C303.465 31.53 303.185 30.88 302.905 30.42C302.625 29.96 302.245 29.59 301.765 29.31C301.285 29.03 300.615 28.84 299.755 28.74L296.035 32.79V39H292.495V18H296.035V28.41L305.455 18H309.685L302.065 26.25Z" fill="#FF6C02"/>
</svg>
