<svg width="237" height="159" viewBox="0 0 237 159" fill="none" xmlns="http://www.w3.org/2000/svg">
<g clip-path="url(#clip0_363_5882)">
<path d="M55.5546 42.3338C58.4718 48.6859 60.0989 54.7012 57.9604 57.3721C57.8326 57.5346 57.6931 57.674 57.542 57.8133C55.8917 59.2649 52.6374 59.2997 47.1518 57.1398C32.5543 51.38 31.8569 41.4281 28.9049 31.72C25.9993 22.1281 15.8299 23.7422 15.5742 23.7886C39.2719 15.5437 50.6152 31.569 55.5546 42.3338Z" fill="url(#paint0_linear_363_5882)"/>
<path d="M57.9609 57.3721C57.833 57.5346 57.6936 57.674 57.5425 57.8133C54.7996 56.1644 49.5464 52.6574 47.0709 48.7323C45.9086 46.8743 44.9207 44.7957 43.8747 42.5893C41.9106 38.4204 39.8767 34.1006 36.3203 30.791L36.7155 30.3613C40.3532 33.7522 42.4103 38.1185 44.3977 42.3338C45.4321 44.5286 46.4084 46.5956 47.559 48.4188C49.988 52.2509 55.2878 55.7695 57.9609 57.3721Z" fill="url(#paint1_linear_363_5882)"/>
<path d="M53.0208 44.9236C52.8465 45.3417 52.7419 45.5855 52.7303 45.6087C52.6838 45.3765 52.6373 45.1442 52.6024 44.9236C50.6499 34.9484 48.0465 33.9149 40.2364 25.1823C32.2403 16.2639 36.8311 7.96094 36.8311 7.96094C63.597 15.6833 54.8339 40.476 53.0208 44.9236Z" fill="url(#paint2_linear_363_5882)"/>
<path d="M53.0212 44.9232C52.8469 45.3412 52.7423 45.5851 52.7307 45.6083C52.6842 45.3761 52.6377 45.1438 52.6028 44.9232C53.4745 36.3067 48.2678 26.1806 46.629 24.369C44.9322 22.4878 43.8978 19.9098 43.5026 18.9344C43.4329 18.7718 43.3748 18.6208 43.3516 18.586L43.7235 18.377C43.7583 18.435 43.8048 18.5395 43.8978 18.7834C44.2813 19.7356 45.3041 22.2671 46.9428 24.0903C49.0116 26.3896 53.8115 36.5506 53.0212 44.9232Z" fill="url(#paint3_linear_363_5882)"/>
<path d="M110.587 134.501H126.754V85.4264H110.587V134.501Z" fill="#8F8F8F"/>
<path d="M55.9488 109.071H181.376C185.292 109.071 188.477 105.89 188.477 101.976V17.7505C188.477 13.8371 185.292 10.6553 181.376 10.6553H55.9488C52.0321 10.6553 48.8477 13.8371 48.8477 17.7505V101.976C48.8477 105.901 52.0321 109.071 55.9488 109.071Z" fill="#F0F0F0"/>
<path d="M54.3132 93.6494L183.006 93.6494V0.180206L54.3132 0.180206V93.6494Z" fill="white"/>
<path d="M54.3223 11.468H183.015V0.180664H54.3223V11.468Z" fill="url(#paint4_linear_363_5882)"/>
<path d="M167.348 100.711C167.348 103.196 169.719 105.216 172.647 105.216C175.576 105.216 177.947 103.207 177.947 100.711C177.947 98.2257 175.576 96.2051 172.647 96.2051C169.719 96.2051 167.348 98.2257 167.348 100.711Z" fill="#CCCCCC"/>
<path d="M155.04 132.656H82.2969V136.361H155.04V132.656Z" fill="#CCCCCC"/>
<path d="M76.5087 7.96091H61.2255C60.3771 7.96091 59.6914 7.27577 59.6914 6.42806V5.22035C59.6914 4.37264 60.3771 3.6875 61.2255 3.6875H76.5087C77.3572 3.6875 78.0429 4.37264 78.0429 5.22035V6.41644C78.0429 7.27577 77.3572 7.96091 76.5087 7.96091Z" fill="#F5F7FF"/>
<path d="M131.122 50.8115H63.748V53.1224H131.122V50.8115Z" fill="#E6E6E6"/>
<path d="M113.724 54.9688H63.748V57.2796H113.724V54.9688Z" fill="#E6E6E6"/>
<path d="M95.4302 64.0264H63.748V66.3373H95.4302V64.0264Z" fill="#E6E6E6"/>
<path d="M120.674 68.1953H63.748V70.5062H120.674V68.1953Z" fill="#E6E6E6"/>
<path d="M117.082 78.1592H63.748V80.4701H117.082V78.1592Z" fill="#E6E6E6"/>
<path d="M128.867 82.3281H63.748V84.639H128.867V82.3281Z" fill="#E6E6E6"/>
<path d="M62.1558 50.8115H60.459V57.2913H62.1558V50.8115Z" fill="#78C2FF"/>
<path d="M62.1558 64.0264H60.459V70.5062H62.1558V64.0264Z" fill="#78C2FF"/>
<path d="M62.1558 78.1592H60.459V84.639H62.1558V78.1592Z" fill="#78C2FF"/>
<path d="M153.505 87.5529H148.113C147.044 87.5529 146.172 86.682 146.172 85.6136V80.2254C146.172 79.1571 147.044 78.2861 148.113 78.2861H153.505C154.575 78.2861 155.446 79.1571 155.446 80.2254V85.6136C155.446 86.682 154.575 87.5529 153.505 87.5529Z" fill="#78C2FF"/>
<path d="M150.507 84.963L148.159 82.9192C147.962 82.7566 147.95 82.4547 148.113 82.2689C148.275 82.0715 148.578 82.0598 148.764 82.2224L150.426 83.6624L152.796 81.0263C152.971 80.8405 153.261 80.8173 153.447 80.9915C153.633 81.1657 153.657 81.456 153.482 81.6418L150.507 84.963Z" fill="#F3F3F3"/>
<path d="M153.331 73.4327H148.275C147.113 73.4327 146.16 72.4805 146.16 71.3192V66.2678C146.16 65.1065 147.113 64.1543 148.275 64.1543H153.331C154.493 64.1543 155.446 65.1065 155.446 66.2678V71.3192C155.446 72.4921 154.493 73.4327 153.331 73.4327ZM148.275 64.7465C147.439 64.7465 146.753 65.4317 146.753 66.2678V71.3192C146.753 72.1553 147.439 72.8405 148.275 72.8405H153.331C154.168 72.8405 154.854 72.1553 154.854 71.3192V66.2678C154.854 65.4317 154.168 64.7465 153.331 64.7465H148.275Z" fill="#78C2FF"/>
<path d="M167.302 87.5645H162.246C161.084 87.5645 160.131 86.6123 160.131 85.4511V80.3996C160.131 79.2384 161.084 78.2861 162.246 78.2861H167.302C168.464 78.2861 169.417 79.2384 169.417 80.3996V85.4511C169.417 86.6123 168.476 87.5645 167.302 87.5645ZM162.246 78.8668C161.409 78.8668 160.724 79.5519 160.724 80.388V85.4395C160.724 86.2756 161.409 86.9607 162.246 86.9607H167.302C168.139 86.9607 168.824 86.2756 168.824 85.4395V80.388C168.824 79.5519 168.139 78.8668 167.302 78.8668H162.246Z" fill="#78C2FF"/>
<path d="M167.476 73.4328H162.083C161.014 73.4328 160.143 72.5619 160.143 71.4935V66.1053C160.143 65.037 161.014 64.166 162.083 64.166H167.476C168.545 64.166 169.417 65.037 169.417 66.1053V71.4935C169.417 72.5619 168.545 73.4328 167.476 73.4328Z" fill="#78C2FF"/>
<path d="M164.478 70.8311L162.13 68.7873C161.932 68.6248 161.921 68.3228 162.083 68.137C162.246 67.9396 162.548 67.928 162.734 68.0906L164.396 69.5305L166.767 66.8945C166.942 66.7087 167.232 66.6855 167.418 66.8597C167.604 67.0339 167.627 67.3242 167.453 67.51L164.478 70.8311Z" fill="#F3F3F3"/>
<path d="M167.302 59.3116H162.246C161.084 59.3116 160.131 58.3594 160.131 57.1981V52.1467C160.131 50.9854 161.084 50.0332 162.246 50.0332H167.302C168.464 50.0332 169.417 50.9854 169.417 52.1467V57.1981C169.417 58.3594 168.476 59.3116 167.302 59.3116ZM162.246 50.6138C161.409 50.6138 160.724 51.299 160.724 52.1351V57.1981C160.724 58.0342 161.409 58.7194 162.246 58.7194H167.302C168.139 58.7194 168.824 58.0342 168.824 57.1981V52.1467C168.824 51.3106 168.139 50.6254 167.302 50.6254H162.246V50.6138Z" fill="#78C2FF"/>
<path d="M153.505 59.3H148.113C147.044 59.3 146.172 58.4291 146.172 57.3607V51.9725C146.172 50.9041 147.044 50.0332 148.113 50.0332H153.505C154.575 50.0332 155.446 50.9041 155.446 51.9725V57.3607C155.446 58.4407 154.575 59.3 153.505 59.3Z" fill="#78C2FF"/>
<path d="M150.507 56.7101L148.159 54.6662C147.962 54.5037 147.95 54.2017 148.113 54.0159C148.275 53.8185 148.578 53.8069 148.764 53.9695L150.426 55.4095L152.796 52.7734C152.971 52.5876 153.261 52.5644 153.447 52.7386C153.633 52.9128 153.657 53.2031 153.482 53.3889L150.507 56.7101Z" fill="#F3F3F3"/>
<path d="M39.4009 62.7494C37.2043 61.7043 35.031 68.6718 35.031 68.6718C31.3119 73.5839 26.1051 67.046 26.6165 74.3968C27.5114 87.2518 11.7982 78.4379 19.0505 91.862C26.3027 105.286 12.6582 99.4566 17.156 110.279C21.6538 121.102 15.8195 134.015 22.5952 128.709C22.5952 128.709 28.5574 115.633 34.7172 111.592C40.8653 107.551 31.033 102.755 32.9506 97.2618C35.7516 89.284 42.4808 89.5976 37.6227 81.0275C32.753 72.4575 46.8392 66.3145 39.4009 62.7494Z" fill="url(#paint5_linear_363_5882)"/>
<path d="M20.4331 123.797C23.3736 121.73 26.8021 107.353 27.0113 98.7834C27.1159 94.3939 28.4176 92.5707 29.5566 90.9566C30.6491 89.4121 31.6021 88.0883 31.0442 85.0225C29.9866 79.1815 32.7643 76.6615 32.7875 76.6383L32.4621 76.2783C32.3343 76.3828 29.452 78.984 30.5561 85.1155C31.0675 87.9721 30.219 89.1682 29.1498 90.6779C28.0224 92.2688 26.6161 94.2429 26.5115 98.7718C26.2907 107.969 22.7808 121.544 20.1426 123.39L20.4331 123.797Z" fill="white"/>
<path d="M14.2845 119.604C14.0055 118.977 13.715 118.327 13.4012 117.642C11.7159 114.1 10.2283 113.519 7.7644 112.555C7.16004 112.323 6.48595 112.056 5.73051 111.719C2.20898 110.128 2.89469 107.806 3.49905 105.739C3.5804 105.449 3.66176 105.158 3.74311 104.879C4.05691 103.672 3.45256 103.056 2.55765 102.139C1.88356 101.454 1.05839 100.606 0.407542 99.259C-0.301413 97.7843 0.0588753 96.9946 0.488897 96.5998C1.38381 95.7521 3.44094 95.903 5.39347 96.9714C5.99782 97.2965 6.49758 97.8191 7.02058 98.3765C8.26415 99.6771 9.80991 101.291 13.715 101.314C15.9464 101.326 17.1668 101.628 17.7944 102.336C18.5149 103.138 18.3755 104.345 18.1895 106.018C18.1198 106.598 18.05 107.248 18.0036 107.957C17.7362 112.172 20.235 115.215 20.2583 115.249C21.7459 117.026 23.5822 120.696 22.7919 122.96C22.4549 123.912 21.7227 124.505 20.5837 124.737C20.1304 124.83 19.7236 124.876 19.3401 124.876C16.6089 124.865 15.6094 122.6 14.2845 119.604ZM5.1494 97.401C3.40607 96.4488 1.54652 96.263 0.814319 96.9598C0.256453 97.4823 0.523764 98.3881 0.837563 99.0616C1.44192 100.327 2.22061 101.117 2.89469 101.814C3.83609 102.778 4.57991 103.532 4.208 105.007C4.13827 105.298 4.04529 105.588 3.96394 105.878C3.35958 107.934 2.80172 109.861 5.93971 111.278C6.67191 111.615 7.35762 111.87 7.95035 112.114C10.4375 113.09 12.0762 113.728 13.8428 117.444C14.1682 118.129 14.4588 118.791 14.7377 119.418C16.2602 122.856 17.1784 124.934 20.4907 124.261C21.4437 124.063 22.0597 123.576 22.3386 122.798C23.036 120.8 21.3624 117.317 19.898 115.563C19.7934 115.435 17.2597 112.346 17.5387 107.934C17.5852 107.214 17.6549 106.552 17.7246 105.971C17.899 104.427 18.0268 103.312 17.4457 102.662C16.9227 102.069 15.7721 101.802 13.7266 101.802C9.61233 101.779 7.98522 100.084 6.68353 98.7133C6.13729 98.1675 5.69564 97.6914 5.1494 97.401Z" fill="url(#paint6_linear_363_5882)"/>
<path d="M20.5248 127.663L21.013 127.64C20.9897 127.187 20.3738 116.457 16.0619 113.31C11.3317 109.861 9.84404 106.157 9.12346 103.672C8.28666 100.745 4.02131 99.9558 3.84698 99.9326L3.76562 100.409C3.81211 100.42 7.90313 101.175 8.65857 103.811C9.39077 106.366 10.9249 110.175 15.7714 113.705C19.9089 116.713 20.5248 127.559 20.5248 127.663Z" fill="url(#paint7_linear_363_5882)"/>
<path d="M10.67 73.5838C13.7383 72.5386 13.099 78.4378 14.3891 82.8041C15.6792 87.1704 28.8006 84.7086 23.2917 95.6476C17.7828 106.587 30.2534 99.3055 26.5343 108.851C22.8152 118.396 26.2089 128.604 22.1643 126.003C18.1198 123.402 19.8864 111.383 15.6792 109.954C11.4719 108.526 10.7862 106.865 14.947 102.975C19.1193 99.0965 4.02209 95.2411 7.75282 87.4027C11.4719 79.5642 7.12522 74.7915 10.67 73.5838Z" fill="url(#paint8_linear_363_5882)"/>
<path d="M20.2806 125.55C20.6641 123.913 23.9532 109.537 20.8849 107.795C18.1769 106.262 18.2467 100.305 18.6651 94.6842C19.037 89.7024 12.6331 87.3799 12.3658 87.2754L12.2031 87.7283C12.2612 87.7515 18.5256 90.0276 18.1769 94.6377C17.7469 100.421 17.7004 106.552 20.6408 108.213C22.9769 109.537 20.8268 121.091 19.804 125.434L20.2806 125.55Z" fill="white"/>
<path d="M31.8461 120.429L27.4762 137.011H17.6903L13.3203 120.429H31.8461Z" fill="url(#paint9_linear_363_5882)"/>
<path d="M31.846 120.429C31.846 120.429 22.2112 122.24 22.2112 137.023H17.6902L13.3086 120.429H31.846Z" fill="url(#paint10_linear_363_5882)"/>
<path d="M108.493 109.42C108.493 109.42 108.83 109.966 108.876 110.419C108.911 110.779 109.213 111.301 109.341 111.603C109.469 111.894 109.887 113.229 109.899 113.578C109.91 113.717 109.585 114.611 109.632 114.901C109.678 115.192 109.841 115.749 109.585 115.795C109.329 115.83 109.039 115.366 109.039 115.366C109.039 115.366 109.062 115.633 108.841 115.726C108.423 115.923 108.19 115.749 108.19 115.749C108.19 115.749 108.039 116.039 107.842 116.074C107.412 116.155 107.203 115.993 107.203 115.993C107.203 115.993 107.017 116.155 106.714 116.144C106.331 116.132 106.168 115.807 106.168 115.807C106.168 115.807 105.68 115.9 105.541 115.679C105.401 115.459 105.424 115.215 105.366 115.006C105.308 114.797 105.355 112.962 105.982 111.638C106.61 110.314 105.819 109.025 105.819 109.025L108.493 109.42Z" fill="#EEA886"/>
<path d="M109.109 115.18C109.109 115.18 109.156 113.531 108.714 113.182C108.284 112.834 108.226 113.426 108.226 113.426C108.226 113.426 108.284 112.834 107.808 112.753C107.331 112.671 107.308 113.368 107.308 113.368C107.308 113.368 107.227 112.915 106.727 113.008C106.227 113.101 106.343 113.682 106.343 113.682C106.343 113.682 105.867 113.113 105.553 113.658C105.03 114.576 105.53 115.667 105.53 115.667C105.53 115.667 105.681 115.911 106.157 115.795C106.157 115.795 106.471 116.434 107.18 115.969C107.18 115.969 107.912 116.364 108.168 115.725C108.203 115.737 109.005 116.12 109.109 115.18Z" fill="#DB9C7C"/>
<path d="M114.096 85.626C114.096 85.626 111.272 95.0438 110.307 98.5159C110.005 99.6075 109.284 110.012 109.157 110.43C109.029 110.848 105.438 111.429 105.438 111.429C105.438 111.429 105.868 98.4114 105.914 97.703C105.949 96.9947 109.877 82.4558 111.016 81.9332C111.865 81.55 112.318 81.8635 113.399 82.6648C114.91 83.7912 114.096 85.626 114.096 85.626Z" fill="#323657"/>
<path d="M148.166 68.2065L141.689 72.4424L142.001 72.9185L148.478 68.6826L148.166 68.2065Z" fill="#4DA8F2"/>
<path d="M149.171 70.6342C149.171 70.6342 149.113 71.0058 149.009 71.1452C149.009 71.1452 148.799 71.4007 148.66 71.5865C148.613 71.6445 148.579 71.7026 148.555 71.7374C148.474 71.8884 148.335 72.26 148.021 72.5735C147.707 72.8871 146.51 73.8741 146.51 73.8741L145.475 73.0032L144.406 72.5271C144.406 72.5271 144.999 69.9259 145.255 69.6007C145.278 69.5659 145.301 69.5427 145.336 69.5078C145.58 69.2523 145.859 69.1711 146.01 69.0433C146.068 68.9969 146.614 68.602 146.812 68.6601C147.079 68.7298 147.242 68.8924 147.3 69.0665C147.3 69.0665 147.823 69.2291 148.032 69.5311C148.032 69.5311 148.521 69.6588 148.672 70.1233C148.66 70.1349 149.148 70.3323 149.171 70.6342Z" fill="#EFAA88"/>
<path d="M111.806 149.948C111.806 149.948 111.55 151.736 111.515 152.003C111.48 152.27 108.645 151.84 108.645 151.84L108.412 149.715C108.412 149.715 111.446 149.692 111.806 149.948Z" fill="#424773"/>
<path d="M111.549 151.782C111.549 151.782 112.444 152.862 113.316 153.327C114.188 153.791 115.547 153.977 116.07 154.465C116.442 154.813 117.419 156.323 113.816 156.299C110.201 156.264 108.469 156.508 108.074 155.928C107.691 155.347 108.632 151.654 108.632 151.654C108.632 151.654 109.481 151.968 111.549 151.782Z" fill="#292C47"/>
<path d="M132.122 149.948C132.122 149.948 131.867 151.736 131.832 152.003C131.797 152.27 128.961 151.84 128.961 151.84L128.729 149.715C128.74 149.715 131.774 149.692 132.122 149.948Z" fill="#424773"/>
<path d="M131.866 151.782C131.866 151.782 132.761 152.862 133.632 153.327C134.504 153.791 137.7 154.186 138.212 154.674C138.583 155.022 139.199 156.439 134.121 156.299C130.518 156.206 128.774 156.508 128.379 155.928C127.984 155.347 128.937 151.654 128.937 151.654C128.937 151.654 129.751 151.979 131.866 151.782Z" fill="#292C47"/>
<path d="M114.153 103.997C114.153 103.997 111.492 108.224 111.689 112.056C111.887 115.877 110.725 120.057 110.318 124.052C109.876 128.511 108.04 139.044 107.982 141.436C107.912 143.816 108.261 151.423 108.261 151.423L111.922 151.504C111.922 151.504 114.99 133.075 115.792 131.194C116.582 129.312 120.534 115.9 120.662 114.402C120.79 112.892 114.153 103.997 114.153 103.997Z" fill="#292C47"/>
<path d="M128.181 104.578C128.181 104.578 130.192 115.064 130.459 117.398C130.726 119.732 130.901 128.72 131.028 130.183C131.156 131.647 132.272 149.286 132.621 151.504H127.949C127.949 151.504 124.357 138.649 124.357 132.576C124.357 126.491 121.58 119.361 119.801 115.343C118.012 111.336 113.921 111.232 112.816 103.788C112.816 103.788 126.693 102.209 128.181 104.578Z" fill="#292C47"/>
<path d="M118.605 68.4277C118.605 68.4277 122.185 67.0923 123.835 69.8096C125.486 72.527 125.323 77.9732 123.522 78.6468C121.72 79.3203 119.012 78.9719 118.082 77.2649C117.164 75.5578 116.328 73.096 116.362 71.4586C116.409 69.8212 117.664 68.9039 118.605 68.4277Z" fill="#EEA886"/>
<path d="M123.126 78.7743C123.126 78.7743 122.975 79.7382 123.219 80.2143C123.463 80.6904 118.582 80.702 118.582 80.702C118.582 80.702 118.186 78.1124 117.431 75.9293C116.687 73.7461 123.126 78.7743 123.126 78.7743Z" fill="#EEA886"/>
<path d="M117.443 75.9409C117.443 75.9409 117.78 76.4983 119.151 76.2777C120.522 76.0571 122.208 74.2339 122.777 74.0365C123.347 73.8391 123.358 73.5023 123.358 73.5023L123.719 74.0249L124.323 74.0597C124.323 74.0597 123.765 72.4223 124.602 71.7604C125.439 71.0985 123.73 66.4651 119.325 68.0096C119.325 68.0096 115.943 68.9386 116.06 70.8663C116.187 72.7823 116.687 74.9771 117.443 75.9409Z" fill="#D88A51"/>
<path d="M123.509 80.1561C123.509 80.1561 123.497 79.2503 123.079 79.1574C122.672 79.0645 118.535 78.6696 118.023 78.8671V79.9238C118.035 79.9354 119.011 80.5393 123.509 80.1561Z" fill="#E2D2CA"/>
<path d="M123.265 72.794C123.184 72.4688 122.37 71.5514 122.056 72.5385C121.742 73.5255 122.533 74.8494 122.974 74.7449C123.416 74.6287 123.462 73.6185 123.265 72.794Z" fill="#EEA886"/>
<path d="M130.355 81.5384C127.519 81.1668 123.509 80.1681 123.509 80.1681L118.024 79.9475C118.024 79.9475 112.991 81.0507 111.016 81.9449C110.83 82.0262 110.83 86.4273 110.307 87.5769L111.945 91.0375C111.945 91.0375 112.898 97.9005 113.096 100.943C113.189 102.348 111.143 114.077 111.143 114.077C111.143 114.077 113.34 114.727 117.082 115.133C120.825 115.54 130.169 114.982 130.227 114.541C130.285 114.1 128.414 98.0979 128.333 97.2734C128.205 96.0076 128.774 89.2491 128.774 89.2491C129.634 88.5756 137.224 85.057 139.292 83.2339C139.85 82.7461 142.186 80.4701 142.849 79.6804C145.197 76.905 147.126 74.5129 147.37 74.0019C147.637 73.7116 144.813 72.1787 144.557 72.0858C144.336 72.0162 141.152 76.127 139.932 77.4508C139.385 78.0431 137.119 79.692 137.119 79.692C137.119 79.692 132.133 81.6429 130.355 81.5384Z" fill="#323657"/>
<path d="M117.582 68.7529C117.582 68.7529 113.027 69.1129 117.443 75.9411L117.582 68.7529Z" fill="#D88A51"/>
<path d="M148.474 68.6833L148.846 68.1143L148.16 68.2072L148.474 68.6833Z" fill="#DFE1E8"/>
<path d="M57.1579 101.465C57.1579 101.465 59.3777 101.604 59.9937 101.941C60.6097 102.29 64.8053 100.966 64.8866 100.664C64.968 100.362 64.8866 100.211 64.8866 100.211H56.6465L57.1579 101.465Z" fill="#DE9673"/>
<path d="M47.1986 91.6876C47.1986 91.6876 46.4897 97.25 47.1986 97.97C49.9066 100.757 59.9249 100.536 59.9249 100.536V101.663C59.9249 101.663 44.6882 103.556 43.2819 100.606C41.5851 97.0642 42.2359 91.2695 42.2359 91.2695L47.1986 91.6876Z" fill="#DE9673"/>
<path d="M42.1777 150.249L43.0843 149.216L41.4455 147.509L40.0625 148.473L42.1777 150.249Z" fill="#2F4563"/>
<path d="M40.0609 148.473C40.0609 148.473 41.9205 149.878 42.4435 149.936C42.9665 149.994 43.2105 150.226 43.1408 151.016C43.0827 151.805 43.8963 155.127 44.4657 155.185C45.0352 155.243 46.9761 155.243 47.3364 156.532C47.6851 157.809 41.165 157.542 40.7699 156.497C40.3631 155.452 37.5621 150.354 37.8876 149.947C38.2246 149.529 39.1079 148.612 40.0609 148.473Z" fill="#1E2D40"/>
<path d="M52.032 108.7C52.032 108.7 64.2121 129.905 59.2726 134.283C57.3317 136.001 55.4722 137.557 52.7874 139.857C51.3579 141.076 49.6378 142.493 47.6039 144.618L47.5226 144.711C46.0698 146.232 44.8611 147.509 44.5008 147.904C44.4892 147.916 44.4776 147.927 44.466 147.939L44.4195 147.985L43.0597 149.274L41.0723 147.532C41.0723 147.532 43.327 144.42 44.5938 142.016C46.3836 138.66 49.3821 134.712 50.7652 133.609C53.1361 131.716 53.7986 131.356 53.7986 129.545C53.7986 127.605 42.6296 116.794 42.6296 116.794C42.6296 116.794 40.9909 110.036 44.8611 108.259C48.6383 106.54 52.032 108.7 52.032 108.7Z" fill="#23344A"/>
<path d="M42.7357 153.536C42.7357 153.536 42.6543 152.56 42.8286 151.933C42.9913 151.306 40.3066 151.666 40.3066 151.666C40.3066 151.666 39.9579 154.279 40.0625 154.871C40.1555 155.464 42.7357 153.536 42.7357 153.536Z" fill="#41608A"/>
<path d="M43.2472 151.933L39.6211 152.584C39.6211 152.584 39.3654 147.962 39.4119 144.432C39.4584 140.623 39.2724 137.638 40.4347 134.607C41.5271 131.774 41.2715 130.694 41.3644 128.766C41.4574 126.839 40.4347 116.875 40.4347 116.875C40.4347 116.875 39.2027 112.416 42.0618 109.269C44.8511 106.203 52.0685 109.257 52.0685 109.257C52.0685 109.257 50.5692 122.856 46.9547 131.275C45.932 133.655 46.4898 135.107 45.1765 138.776C45.1881 138.776 43.2007 146.801 43.2472 151.933Z" fill="#2F4563"/>
<path d="M46.3956 82.3745C46.2096 82.6996 46.0702 83.106 45.9656 83.5357C45.8726 83.9421 45.8028 84.3834 45.768 84.7782C45.675 85.6492 45.6982 86.3575 45.6982 86.3575C45.6982 86.3575 40.8634 85.3008 41.6537 84.186C42.444 83.0596 41.9791 79.6455 41.9791 79.6455C41.9791 79.6455 47.0232 81.3177 46.3956 82.3745Z" fill="#EEA987"/>
<path d="M49.1157 73.0725C49.1157 73.0725 50.3476 74.1408 49.8014 77.2414C49.8014 77.2414 50.0803 79.7032 50.4522 80.1329C50.8241 80.5626 49.4411 80.7251 49.29 81.0271C49.1389 81.3406 48.8716 82.7806 47.8953 83.6515C46.9307 84.5224 42.1307 81.898 41.8866 80.4116C41.6542 78.9252 38.3302 72.5499 43.5951 72.2596C48.86 71.9693 49.1157 73.0725 49.1157 73.0725Z" fill="#EEA886"/>
<path d="M52.4278 95.8909C52.3348 96.2045 52.6951 100.954 52.6602 101.372C52.4742 103.625 53.0553 107.039 53.2878 108.27C53.3459 108.56 53.3692 108.711 53.3692 108.711C48.1508 111.266 40.8985 111.034 40.8985 111.034C40.9218 110.836 41.9329 108.386 41.9678 108.2C42.3978 105.134 43.037 103.741 42.8627 101.674C42.7697 100.513 42.4675 99.2934 41.8515 97.7838C40.085 93.4291 40.1779 90.5376 40.4685 88.1454C40.7591 85.7532 41.4796 84.3945 41.4796 84.3945L45.8844 84.8706C46.8258 85.9042 47.651 86.4616 50.3125 88.8189C53.1367 91.3156 53.6248 92.082 52.4278 95.8909Z" fill="#EB4747"/>
<path d="M39.8996 154.197C39.8996 154.197 42.4449 153.477 42.5263 153.396C42.6076 153.327 42.6192 153.176 42.9679 153.315C43.3166 153.454 43.4677 153.988 43.8047 154.151C44.1534 154.325 46.257 154.929 47.4076 155.498C47.826 155.707 49.5926 156.369 49.8366 156.938C50.0923 157.495 50.011 158.343 46.9776 158.146C43.9442 157.948 40.6318 158.378 39.9694 158.041C39.3185 157.716 39.7253 155.068 39.8996 154.197Z" fill="#23344A"/>
<path d="M49.9296 76.1267C49.9296 76.1267 50.5223 69.705 44.2928 70.8546C38.0633 72.0042 41.271 79.0182 42.1078 81.3059C42.1078 81.3059 42.0033 77.7524 45.0018 77.6363C48.0119 77.5202 48.6279 76.8234 49.9296 76.1267Z" fill="#464240"/>
<path d="M44.5251 76.7307C44.1532 76.0804 42.8631 76.4287 43.0142 77.4158C43.1653 78.4145 44.188 79.4015 44.5367 78.9254C44.8738 78.4493 45.0713 77.6945 44.5251 76.7307Z" fill="#EEA987"/>
<path d="M44.6637 89.3534C44.6637 89.3534 44.1523 94.8577 44.8613 95.5777C47.5692 98.3647 58.2384 98.4112 58.2384 98.4112L58.7498 100.014C58.7498 100.014 42.8971 101.094 41.4792 98.1441C39.7824 94.6023 40.4332 88.8076 40.4332 88.8076L44.6637 89.3534Z" fill="#EEA987"/>
<path d="M42.3165 72.4341C42.3165 72.4341 39.9223 70.1348 38.2139 72.736C36.5054 75.3372 40.2361 78.9719 41.7586 76.8236C43.2579 74.6637 42.3165 72.4341 42.3165 72.4341Z" fill="#464240"/>
<path d="M45.9653 83.5351C45.8723 83.9415 45.8026 84.3828 45.7677 84.7776C44.1639 84.046 42.9668 81.8164 42.9668 81.8164C44.1174 82.8151 45.9653 83.5351 45.9653 83.5351Z" fill="#A77860"/>
<path d="M68.8959 100.014H53.7754V100.861H68.8959V100.014Z" fill="#6E6760"/>
<path d="M74.9661 86.9863L68.1543 100.475L68.9118 100.857L75.7236 87.3682L74.9661 86.9863Z" fill="#6E6760"/>
<path d="M56.0075 98.4113C56.0075 98.4113 58.2273 98.2371 58.8433 97.7958C59.4593 97.3545 63.6549 99.0383 63.7362 99.4215C63.8176 99.8048 63.7362 100.002 63.7362 100.002H55.4961L56.0075 98.4113Z" fill="#EEA987"/>
<path d="M41.4688 84.383L41.7826 83.5469L46.013 84.383V85.1378L41.4688 84.383Z" fill="#EB4747"/>
<path d="M44.6524 89.4232C44.6524 89.4232 45.1056 86.2298 42.8858 85.9511C40.6659 85.6724 40.4219 88.8194 40.4219 88.8194L44.6524 89.4232Z" fill="#EEA987"/>
<path d="M189.395 149.53C189.395 149.53 189.65 151.33 189.685 151.608C189.72 151.875 192.556 151.446 192.556 151.446L192.788 149.297C192.788 149.297 189.755 149.274 189.395 149.53Z" fill="#5C544D"/>
<path d="M189.651 151.376C189.651 151.376 188.756 152.467 187.884 152.932C187.012 153.408 185.653 153.594 185.141 154.081C184.769 154.43 183.793 155.963 187.396 155.928C191.011 155.893 192.742 156.148 193.137 155.556C193.521 154.976 192.58 151.236 192.58 151.236C192.58 151.236 191.719 151.573 189.651 151.376Z" fill="#3C4145"/>
<path d="M169.078 149.53C169.078 149.53 169.334 151.33 169.369 151.608C169.404 151.875 172.239 151.446 172.239 151.446L172.472 149.297C172.46 149.297 169.427 149.274 169.078 149.53Z" fill="#5C544D"/>
<path d="M169.334 151.376C169.334 151.376 168.439 152.467 167.568 152.932C166.696 153.408 163.5 153.791 162.988 154.291C162.617 154.651 162.001 156.067 167.079 155.94C170.682 155.847 172.426 156.16 172.821 155.568C173.204 154.987 172.263 151.248 172.263 151.248C172.263 151.248 171.449 151.585 169.334 151.376Z" fill="#3C4145"/>
<path d="M188.384 102.929C188.384 102.929 189.894 107.411 189.697 111.267C189.499 115.122 190.476 119.349 190.882 123.378C191.324 127.872 193.16 138.521 193.218 140.925C193.288 143.329 192.94 151.005 192.94 151.005L189.279 151.086C189.279 151.086 186.21 132.483 185.408 130.578C184.618 128.685 180.666 115.145 180.539 113.624C180.411 112.126 188.384 102.929 188.384 102.929Z" fill="#33373B"/>
<path d="M173.02 103.73C173.02 103.73 171.009 114.309 170.742 116.678C170.474 119.035 170.3 128.116 170.172 129.591C170.044 131.066 169.289 148.914 168.58 151.109H173.252C173.252 151.109 176.843 138.138 176.843 131.995C176.843 125.852 179.61 118.652 181.399 114.599C183.189 110.546 187.28 110.454 188.384 102.94C188.384 102.929 174.507 101.349 173.02 103.73Z" fill="#3C4145"/>
<path d="M182.513 67.5678C182.513 67.5678 178.829 66.1976 177.132 68.9962C175.435 71.7948 175.598 77.4037 177.458 78.1004C179.317 78.7855 182.107 78.4256 183.06 76.6721C184.013 74.9186 184.873 72.387 184.826 70.6916C184.78 68.9962 183.49 68.0556 182.513 67.5678Z" fill="#EEA886"/>
<path d="M178.074 77.9267C178.074 77.9267 178.226 78.8905 177.982 79.3666C177.737 79.8427 182.619 79.8544 182.619 79.8544C182.619 79.8544 183.014 77.2648 183.769 75.0816C184.525 72.8985 178.074 77.9267 178.074 77.9267Z" fill="#EEA886"/>
<path d="M183.758 75.0816C183.758 75.0816 183.42 75.639 182.049 75.4183C180.678 75.1977 178.992 73.3745 178.423 73.1771C177.853 72.9797 177.842 72.6429 177.842 72.6429L177.482 73.1655L176.877 73.2003C176.877 73.2003 177.435 71.563 176.598 70.9011C175.761 70.2391 177.47 65.6057 181.875 67.1502C181.875 67.1502 185.257 68.0792 185.141 70.0069C185.013 71.9346 184.513 74.1293 183.758 75.0816Z" fill="#FCCCA2"/>
<path d="M177.691 79.3084C177.691 79.3084 177.703 78.4026 178.121 78.3097C178.528 78.2168 182.666 77.822 183.177 78.0194V79.0761C183.165 79.0878 182.201 79.6916 177.691 79.3084Z" fill="#E2D2CA"/>
<path d="M177.935 71.9463C178.016 71.6212 178.83 70.7038 179.143 71.6908C179.457 72.6779 178.667 74.0017 178.225 73.8972C177.795 73.7811 177.737 72.7592 177.935 71.9463Z" fill="#EEA886"/>
<path d="M177.692 79.3085C177.692 79.3085 175.425 80.1214 172.799 81.2362C172.799 81.2362 169.777 82.3626 169.452 85.6954C169.277 87.4605 167.394 96.8551 167.034 97.6447C166.685 98.4344 162.501 111.197 162.35 111.464C162.199 111.731 165.767 113.205 166 113.089C166.232 112.973 170.044 101.454 170.428 100.594C170.428 100.594 172.624 93.6848 172.683 92.6513C172.683 92.6513 172.741 95.5893 172.868 96.4138C172.985 97.2383 170.916 113.24 170.974 113.682C171.032 114.123 180.376 114.68 184.119 114.274C187.861 113.867 190.871 112.996 190.871 112.996C190.871 112.996 187.931 100.374 188.024 98.9685C188.221 95.9144 189.244 90.1779 189.244 90.1779L192.289 95.9261L188.384 105.959L189.279 109.013C189.279 109.013 196.531 98.0628 196.764 97.0641C196.996 96.0654 196.403 94.788 196.02 93.9635C195.636 93.139 193.126 86.8683 192.533 85.9857C191.94 85.1032 190.953 81.573 188.547 80.5859C186.536 79.7614 183.154 79.0879 183.154 79.0879L177.692 79.3085Z" fill="#EB4747"/>
<path d="M175.764 105.35L158.674 100.972L155.617 112.884L172.707 117.263L175.764 105.35Z" fill="#D6D6D6"/>
<path d="M160.863 114.076C160.863 114.076 160.375 114.866 160.201 115.086C160.026 115.307 160.642 115.458 160.898 115.226C161.165 115.005 160.863 114.076 160.863 114.076Z" fill="#C98462"/>
<path d="M164.43 116.77C164.43 116.77 164.721 116.468 164.779 116.283C164.779 116.283 164.86 115.923 164.942 115.667C164.965 115.586 164.988 115.516 165.011 115.47C165.093 115.296 165.325 114.924 165.407 114.436C165.476 113.949 165.697 111.765 165.697 111.765L164.372 111.429L163.303 111.208C163.303 111.208 161.002 113.496 160.886 113.949C160.874 113.995 160.862 114.041 160.862 114.076C160.793 114.46 160.909 114.785 160.897 114.982C160.897 115.063 160.909 115.818 161.083 115.958C161.327 116.155 161.583 116.19 161.78 116.132C161.78 116.132 162.28 116.492 162.699 116.48C162.699 116.48 163.152 116.828 163.652 116.654C163.64 116.654 164.14 116.956 164.43 116.77Z" fill="#DE9D7D"/>
<path d="M169.59 102.952C169.59 102.952 166.557 112.126 165.999 113.09C165.999 113.09 163.779 112.625 162.35 111.464L165.685 101.559L169.59 102.952Z" fill="#EB4747"/>
<path d="M234.409 113.913C234.409 113.913 234.281 111.8 233.723 111.475C233.165 111.15 233.491 111.8 233.491 111.8C233.491 111.8 233.805 113.333 233.874 113.96C233.886 113.983 234.409 113.913 234.409 113.913Z" fill="#1D3B54"/>
<path d="M219.508 69.4605C219.508 69.4605 224.773 69.0192 224.621 74.5468C224.482 80.0744 223.599 80.9105 224.621 84.8123C225.644 88.7141 219.496 82.5943 219.496 82.5943L219.508 69.4605Z" fill="#434343"/>
<path d="M215.08 84.4054C215.08 84.4054 207.63 89.0504 207.002 88.5511C206.119 87.866 203.725 81.9668 203.725 81.9668L201.854 82.861C201.854 82.861 204.085 93.0451 207.107 92.3019C210.117 91.5471 217.032 87.2737 217.032 87.2737L215.08 84.4054Z" fill="#EEA987"/>
<path d="M225.238 103.625C225.238 103.625 227.179 106.087 227.853 107.724C228.538 109.361 229.677 112.926 229.526 115.702C229.375 118.477 228.469 123.668 228.724 124.841C228.992 126.014 229.259 128.441 229.538 129.277C229.829 130.113 230.967 132.54 231.072 135.048C231.188 137.557 229.48 148.554 229.55 149.576C229.631 150.597 227.609 149.994 227.609 149.994C227.609 149.994 226.923 140.053 226.551 138.346C226.168 136.639 225.714 130.833 225.377 130.415C225.04 129.997 224.099 125.677 224.25 124.992C224.389 124.307 220.519 114.064 220.298 112.009C220.066 109.965 214.359 103.613 214.359 103.613C214.359 103.613 219.357 101.72 225.238 103.625Z" fill="#EEA987"/>
<path d="M215.999 103.625C215.999 103.625 215.906 104.658 215.79 105.042C215.674 105.425 213.059 115.098 212.792 118.814C212.524 122.53 211.838 125.689 211.734 126.478C211.618 127.268 211.85 129.927 212.071 130.612C212.303 131.298 210.932 147.427 210.816 147.799C210.7 148.171 211.722 148.287 212.443 148.182C213.163 148.066 216.813 136.349 216.58 134.375C216.348 132.401 216.127 128.197 216.766 126.49C217.417 124.783 223.217 112.416 223.263 111.649C223.298 110.883 225.774 97.807 215.999 103.625Z" fill="#EEA987"/>
<path d="M227.667 148.797C227.667 148.797 227.482 150.11 227.272 150.47C227.063 150.83 226.505 152.653 226.25 152.99C225.994 153.326 225.436 155.881 226.25 156.183C227.063 156.485 228.992 156.996 229.643 155.974C230.294 154.952 230.375 153.93 230.271 153.152C230.166 152.374 229.388 148.774 229.399 148.426C229.411 148.066 227.667 148.797 227.667 148.797Z" fill="#EEA987"/>
<path d="M226.575 152.27C226.575 152.27 226.482 154.255 227.981 154.255C229.481 154.255 230.143 152.455 230.143 152.455C230.143 152.455 230.654 153.338 230.143 155.231C229.632 157.124 227.505 156.729 227.028 156.659C226.563 156.589 224.297 155.986 226.575 152.27Z" fill="#EB4747"/>
<path d="M210.966 147.009C210.966 147.009 209.908 148.902 209.28 149.285C208.502 149.761 206.979 151.294 206.445 151.363C205.91 151.433 204.004 151.77 204.376 152.85C204.678 153.732 209.234 153.605 209.745 153.163C210.257 152.722 211.791 151.131 212.418 151.166C213.034 151.201 212.814 153.454 212.814 153.454H213.488C213.488 153.454 213.72 151.259 213.755 150.887C213.836 149.773 213.046 148.948 213.011 148.309C212.976 147.671 212.941 147.195 212.941 147.195L210.966 147.009Z" fill="#EB4747"/>
<path d="M206.596 151.317C206.596 151.317 208.095 151.84 209.257 151.178C210.408 150.516 212.628 149.505 213.418 149.494C213.418 149.494 212.988 148.182 212.976 148.042C212.965 147.903 212.918 147.206 212.918 147.206L210.977 146.893C210.977 146.893 209.722 148.739 209.164 149.169C208.618 149.61 207.2 150.701 206.596 151.317Z" fill="#EEA987"/>
<path d="M214.325 103.462C214.325 103.462 213.778 105.715 213.581 106.365C213.383 107.015 212.105 117.176 211.791 123.528C211.791 123.528 219.45 126.431 229.991 125.944C229.991 125.944 230.247 114.273 229.282 110.975C228.318 107.677 226.563 104.588 225.238 103.636C224.064 102.777 214.325 103.462 214.325 103.462Z" fill="#EB4747"/>
<path d="M231.815 109.152C231.815 109.152 231.664 110.104 231.374 111.01C231.083 111.927 230.827 112.218 230.932 112.74C231.013 113.135 231.467 113.437 231.583 113.309C231.699 113.182 231.746 111.649 232.385 111.649C233.024 111.66 232.199 113.553 232.571 113.414C232.954 113.275 234.407 112.473 234.314 111.707C234.221 110.929 233.64 110.371 233.675 109.222C233.71 108.177 233.384 107.735 233.384 107.735L231.815 109.152Z" fill="#EEA987"/>
<path d="M201.344 82.4081C201.344 82.4081 202.227 83.5577 202.785 83.6855C203.331 83.8132 203.924 82.4778 203.924 82.4778L203.61 81.3281L201.344 82.4081Z" fill="#EEA886"/>
<path d="M203.54 82.025C203.54 82.025 203.97 80.6895 204.028 80.4921C204.086 80.2831 203.877 79.6793 203.505 79.1102C203.133 78.5528 202.68 77.9374 202.517 77.7748C202.436 77.6935 202.389 77.6006 202.11 77.7167C201.831 77.8445 201.669 78.1 201.669 78.1C201.669 78.1 201.25 78.0883 201.076 78.4251C201.076 78.4251 200.681 78.4367 200.541 78.8548C200.541 78.8548 200.158 78.878 200.088 79.1799C200.088 79.1799 200.274 79.7489 200.274 79.9812C200.285 80.2134 200.739 81.3631 201.355 82.4082C201.343 82.4082 202.261 83.1978 203.54 82.025Z" fill="#EEA886"/>
<path d="M202.562 80.2954C202.562 80.2954 202.109 80.8296 202.051 81.0386C201.993 81.2477 200.656 80.458 200.656 80.458C200.656 80.458 201.9 79.7497 202.562 80.2954Z" fill="#CF8C6C"/>
<path d="M202.575 77.9032C202.575 77.9032 203.319 79.4709 203.063 79.6102C202.819 79.7496 202.645 79.6451 202.645 79.6451L202.61 80.4347C202.61 80.4347 202.284 80.9457 201.831 80.4463C201.831 80.4463 201.587 80.9457 201.192 80.4231C201.192 80.4231 200.878 80.6786 200.657 80.4696C200.436 80.2605 200.064 79.1922 200.064 79.1922C200.064 79.1922 200.088 78.9367 200.518 78.867C200.518 78.867 200.634 78.4606 201.052 78.4374C201.052 78.4374 201.285 78.0193 201.738 78.0077C201.738 78.0077 201.994 77.6361 202.493 77.7871C202.505 77.7754 202.552 77.8335 202.575 77.9032Z" fill="#DB9C7C"/>
<path d="M204.016 80.434C204.016 80.434 203.122 79.6443 202.436 79.4237C202.285 79.3772 202.122 79.354 202.017 79.4817C201.913 79.6095 201.959 79.9114 202.331 80.2714C202.703 80.6314 203.017 81.2701 203.017 81.2701C203.017 81.2701 203.517 81.5372 204.016 80.434Z" fill="#EEA886"/>
<path d="M201.75 77.9953C201.75 77.9953 202.668 79.6211 202.657 79.8185C202.645 80.0043 203.261 79.6791 203.249 79.5166C203.249 79.354 202.587 77.9024 202.494 77.7631C202.424 77.6353 201.924 77.5424 201.75 77.9953Z" fill="#EEA886"/>
<path d="M202.702 78.0883C202.702 78.0883 201.238 75.3594 201.028 75.4639C200.715 75.6032 200.796 76.358 202.028 78.4018C203.225 80.3643 202.702 78.0883 202.702 78.0883Z" fill="#EEA886"/>
<path d="M214.686 90.0497L211.676 86.0666C211.676 86.0666 217.057 81.9093 218.719 84.5454C218.719 84.5454 218.835 88.9117 214.686 90.0497Z" fill="#323657"/>
<path d="M212.871 89.9103C212.953 91.2458 213.638 92.3606 213.754 92.8367C213.871 93.3244 213.754 94.4276 213.894 95.5424C214.033 96.6572 214.463 101.941 214.324 103.451C214.184 104.96 224.691 104.275 225.481 103.822C225.481 103.822 223.715 100.664 223.668 99.3513C223.657 98.8984 223.378 97.5049 224.121 96.4714C224.517 95.9256 225.237 94.207 225.958 92.9528C225.958 92.9528 225.818 92.6973 225.958 92.9528C226.237 92.4651 226.527 91.9774 226.736 91.6174C227.004 91.1413 227.155 90.5839 227.155 90.5839C227.155 90.5839 227.62 84.7776 226.341 84.1273C225.063 83.477 224.377 83.3609 223.122 83.3028C221.867 83.2447 221.042 82.9893 221.042 82.9893L218.113 83.3028C218.113 83.3028 216.23 83.9531 215.498 84.0112C214.754 84.0692 213.813 85.6601 213.906 86.682C213.987 87.7156 212.79 88.5749 212.871 89.9103Z" fill="#323657"/>
<path d="M232.327 111.59C232.327 111.59 231.479 111.811 231.525 114.679L232.49 114.517C232.49 114.517 232.467 112.937 232.757 112.066C232.757 112.066 232.711 111.497 232.327 111.59Z" fill="#1D3B54"/>
<path d="M228.807 115.318L236.291 113.193L236.268 122.402L228.818 126.861L228.807 115.318Z" fill="#1D3B54"/>
<path d="M228.818 126.861L229.76 127.035L237 122.541L236.907 113.24L236.291 113.193L228.818 126.861Z" fill="#1D3B54"/>
<path d="M225.099 83.6045C225.099 83.6045 227.424 83.5929 228.482 85.6483C229.539 87.6921 229.644 89.8636 229.911 90.6301C230.167 91.3965 230.841 95.9138 231.097 96.5757C231.352 97.226 232.875 101.674 233.247 104.182C233.619 106.69 233.7 109.222 233.7 109.222L231.829 109.164C231.829 109.164 229.969 102.347 229.33 100.733C228.784 99.3511 228.574 96.9241 228.261 96.0763C227.947 95.217 226.006 89.2133 225.611 88.7953C225.216 88.3424 223.112 83.9761 225.099 83.6045Z" fill="#EEA886"/>
<path d="M225.866 91.9076L230.608 90.4096C230.608 90.4096 229.155 83.4073 225.099 83.6047C221.845 83.7556 225.866 91.9076 225.866 91.9076Z" fill="#323657"/>
<path d="M220.02 70.0299C218.718 69.8209 215.731 70.146 214.883 73.5601C214.883 73.5601 214.883 74.5123 215.022 75.2672C215.162 76.0336 214.255 78.1238 214.418 78.2516C214.581 78.3793 215.278 78.6 215.278 78.6C215.278 78.6 215.766 81.0502 216.603 81.1315C217.44 81.2012 220.659 80.9108 222.484 78.1355C224.309 75.3601 225.285 70.8892 220.02 70.0299Z" fill="#EEA886"/>
<path d="M217.859 80.1673C217.859 80.1673 217.929 80.5156 217.987 81.015C218.022 81.2705 218.045 81.5724 218.068 81.8975C218.114 82.7801 218.091 83.802 217.789 84.4407C217.789 84.4407 219.428 85.451 221.171 83.024C221.171 83.024 220.997 79.9931 222.008 78.379C223.007 76.788 217.859 80.1673 217.859 80.1673Z" fill="#EEA886"/>
<path d="M214.895 73.5601C214.895 73.5601 216.859 75.2555 218.939 75.7897C221.019 76.3239 222.112 78.658 222.112 78.658C222.112 78.658 225.785 74.9884 223.565 71.435C221.345 67.87 214.895 69.4609 214.895 73.5601Z" fill="#434343"/>
<path d="M217.986 81.0269C218.021 81.2824 218.044 81.5843 218.068 81.9095C219.904 81.0153 220.915 79.8076 220.915 79.8076C219.823 80.5624 217.986 81.0269 217.986 81.0269Z" fill="#A77860"/>
<path d="M219.311 75.9057C219.311 75.9057 221.437 81.6191 221.182 82.9894C221.182 82.9894 222.309 82.792 224.308 83.4074C224.308 83.419 223.343 73.2232 219.311 75.9057Z" fill="#434343"/>
<path d="M221.891 83.1751C221.891 83.1751 221.194 87.4601 218.602 86.9724C216.011 86.4846 217.975 83.3493 217.975 83.3493C217.975 83.3493 218.986 82.4435 221.891 83.1751Z" fill="#EEA886"/>
<path d="M171.324 29.9201C171.324 33.2645 170.115 36.3302 168.116 38.7108C165.617 41.6836 161.863 43.5881 157.644 43.5881C153.297 43.5881 149.346 41.5443 146.824 38.2811C145.034 35.9702 143.965 33.0787 143.965 29.9317C143.965 22.3836 150.09 16.2754 157.633 16.2754C165.199 16.2638 171.324 22.3836 171.324 29.9201Z" fill="#EEF0F7"/>
<path d="M167.43 37.2478C167.384 37.2014 167.268 37.1549 167.198 37.1085C167.198 37.1085 167.186 37.1085 167.186 37.0969C166.582 36.7601 164.827 35.8891 161.352 34.9021C160.724 34.7047 160.248 34.5885 160.085 34.5421L159.795 34.0776C159.748 33.6015 159.76 32.9047 159.771 32.4286C160.259 31.8596 160.701 30.9771 160.945 29.5952C161.026 29.6532 161.085 29.5255 161.085 29.5255C161.038 29.4442 161.747 27.7255 161.619 27.3423C161.549 27.1217 161.398 27.1449 161.282 27.2146C161.294 27.1101 161.317 27.0056 161.34 26.9011C161.34 26.9011 161.619 24.265 160.283 22.8018C160.143 22.6741 159.655 22.6393 159.655 22.6393C157.517 21.989 156.226 22.2793 155.425 22.616C154.227 23.5915 154.146 25.2521 154.193 26.1695C154.216 26.3901 154.239 26.5991 154.262 26.8198V26.8314C154.274 26.9127 154.286 26.994 154.297 27.0752C154.181 27.0056 154.042 26.9707 153.96 27.1914C153.821 27.5746 154.344 29.2816 154.402 29.3977C154.402 29.3977 154.518 29.5719 154.599 29.4906C154.843 31.0003 155.285 31.9293 155.75 32.4983C155.715 33.1138 155.622 33.8337 155.564 34.2866L155.029 34.844C155.006 34.8556 154.971 34.8672 154.948 34.8672C148.963 36.4582 147.266 37.573 147.266 37.573C147.115 37.6659 146.964 37.9097 146.812 38.2813C149.346 41.5561 153.298 43.5883 157.633 43.5883C161.84 43.5883 165.594 41.6838 168.104 38.711C167.86 38.0839 167.674 37.4917 167.43 37.2478Z" fill="#78C2FF"/>
<path d="M61.5859 19.1553H61.3418V42.241H61.5859V19.1553Z" fill="#E0E0E0"/>
<path d="M78.996 19.1553H78.752V42.241H78.996V19.1553Z" fill="#E0E0E0"/>
<path d="M96.4062 19.1553H96.1621V42.241H96.4062V19.1553Z" fill="#E0E0E0"/>
<path d="M113.816 19.1553H113.572V42.241H113.816V19.1553Z" fill="#E0E0E0"/>
<path d="M131.226 19.1553H130.982V42.241H131.226V19.1553Z" fill="#E0E0E0"/>
<path d="M64.2348 43.6113H61.4688V44.4126H64.2348V43.6113Z" fill="#B8B8B8"/>
<path d="M65.6411 16.3105H61.4688V16.9144H65.6411V16.3105Z" fill="#D9D9D9"/>
<path d="M67.3844 17.4258H61.4688V18.0296H67.3844V17.4258Z" fill="#D9D9D9"/>
<path d="M83.5863 16.3105H78.6934V16.9144H83.5863V16.3105Z" fill="#D9D9D9"/>
<path d="M81.8197 17.4258H78.6934V18.0296H81.8197V17.4258Z" fill="#D9D9D9"/>
<path d="M99.4396 16.3105H96.4062V16.9144H99.4396V16.3105Z" fill="#D9D9D9"/>
<path d="M99.9394 17.4258H96.4062V18.0296H99.9394V17.4258Z" fill="#D9D9D9"/>
<path d="M118.233 16.3105H113.816V16.9144H118.233V16.3105Z" fill="#D9D9D9"/>
<path d="M117.35 17.4258H113.816V18.0296H117.35V17.4258Z" fill="#D9D9D9"/>
<path d="M133.748 16.3105H131.109V16.9144H133.748V16.3105Z" fill="#D9D9D9"/>
<path d="M133.225 17.4258H131.109V18.0296H133.225V17.4258Z" fill="#D9D9D9"/>
<path d="M81.645 43.6113H78.8789V44.4126H81.645V43.6113Z" fill="#B8B8B8"/>
<path d="M99.1723 43.6113H96.4062V44.4126H99.1723V43.6113Z" fill="#B8B8B8"/>
<path d="M116.582 43.6113H113.816V44.4126H116.582V43.6113Z" fill="#B8B8B8"/>
<path d="M133.993 43.6113H131.227V44.4126H133.993V43.6113Z" fill="#B8B8B8"/>
<path d="M125.077 35.3897C119.65 35.3897 114.931 33.2762 110.003 31.0814C103.925 28.3641 97.6488 25.5539 89.2808 26.3319C83.9346 26.8196 80.5758 28.7821 77.6237 30.5008C74.939 32.0685 72.4053 33.4388 68.9768 33.5549C63.433 33.7407 61.5037 31.6156 61.4805 31.4879V30.1292C61.4921 30.1524 62.7008 32.533 68.9768 32.5098C72.0683 32.4981 74.3463 31.1627 76.9961 29.6298C80.0644 27.8415 83.551 25.8093 89.1762 25.2984C97.858 24.4855 104.297 27.3538 110.515 30.1408C117.023 33.0555 123.241 35.7845 131.097 33.4155V34.5419C128.866 35.2039 127.076 35.3897 125.077 35.3897Z" fill="url(#paint11_linear_363_5882)"/>
<path d="M92.4768 35.1225C88.4671 35.1225 85.2943 32.6955 82.1795 30.3265C79.8202 28.5266 77.3679 26.6918 74.5437 25.786C65.9201 23.0222 61.5036 28.0737 61.4688 28.1201V26.5873C61.5152 26.5292 62.3055 25.6118 64.5835 24.7409C66.6523 23.9396 70.1389 23.3009 74.9389 24.8106C77.9839 25.7628 80.5059 27.6788 82.9466 29.5485C87.8976 33.3225 92.1746 36.5856 99.6012 31.4761C105.226 27.6092 110.526 23.928 115.744 22.5809C120.847 21.2687 126.17 22.2326 131.144 26.7034L131.109 28.0969C120.533 18.5514 111.526 24.6015 100.299 32.3122C97.3232 34.3328 94.7664 35.1225 92.4768 35.1225Z" fill="url(#paint12_linear_363_5882)"/>
</g>
<defs>
<linearGradient id="paint0_linear_363_5882" x1="59.6431" y1="41.1618" x2="14.7648" y2="38.7419" gradientUnits="userSpaceOnUse">
<stop stop-color="#40D5E6"/>
<stop offset="1" stop-color="#5577FF"/>
</linearGradient>
<linearGradient id="paint1_linear_363_5882" x1="61.0029" y1="61.2245" x2="40.1027" y2="37.542" gradientUnits="userSpaceOnUse">
<stop stop-color="#40D5E6"/>
<stop offset="1" stop-color="#5577FF"/>
</linearGradient>
<linearGradient id="paint2_linear_363_5882" x1="56.0777" y1="27.3958" x2="34.8342" y2="26.2503" gradientUnits="userSpaceOnUse">
<stop stop-color="#40D5E6"/>
<stop offset="1" stop-color="#5577FF"/>
</linearGradient>
<linearGradient id="paint3_linear_363_5882" x1="55.1289" y1="44.0137" x2="39.8911" y2="17.0081" gradientUnits="userSpaceOnUse">
<stop stop-color="#40D5E6"/>
<stop offset="1" stop-color="#5577FF"/>
</linearGradient>
<linearGradient id="paint4_linear_363_5882" x1="54.319" y1="5.82538" x2="183.009" y2="5.82538" gradientUnits="userSpaceOnUse">
<stop stop-color="#40D5E6"/>
<stop offset="1" stop-color="#5577FF"/>
</linearGradient>
<linearGradient id="paint5_linear_363_5882" x1="41.6161" y1="96.2979" x2="16.2088" y2="96.2979" gradientUnits="userSpaceOnUse">
<stop stop-color="#40D5E6"/>
<stop offset="1" stop-color="#5577FF"/>
</linearGradient>
<linearGradient id="paint6_linear_363_5882" x1="22.9769" y1="110.463" x2="0.00076489" y2="110.463" gradientUnits="userSpaceOnUse">
<stop stop-color="#40D5E6"/>
<stop offset="1" stop-color="#5577FF"/>
</linearGradient>
<linearGradient id="paint7_linear_363_5882" x1="21.0122" y1="113.802" x2="3.76703" y2="113.802" gradientUnits="userSpaceOnUse">
<stop stop-color="#40D5E6"/>
<stop offset="1" stop-color="#5577FF"/>
</linearGradient>
<linearGradient id="paint8_linear_363_5882" x1="27.2405" y1="99.936" x2="7.15684" y2="99.936" gradientUnits="userSpaceOnUse">
<stop stop-color="#40D5E6"/>
<stop offset="1" stop-color="#5577FF"/>
</linearGradient>
<linearGradient id="paint9_linear_363_5882" x1="13.3169" y1="128.719" x2="31.8497" y2="128.719" gradientUnits="userSpaceOnUse">
<stop stop-color="#FF9340"/>
<stop offset="1" stop-color="#FFCE45"/>
</linearGradient>
<linearGradient id="paint10_linear_363_5882" x1="13.3168" y1="128.719" x2="31.8496" y2="128.719" gradientUnits="userSpaceOnUse">
<stop stop-color="#C97332"/>
<stop offset="1" stop-color="#FFCE45"/>
</linearGradient>
<linearGradient id="paint11_linear_363_5882" x1="138.768" y1="30.2647" x2="67.7138" y2="30.2647" gradientUnits="userSpaceOnUse">
<stop stop-color="#40D5E6"/>
<stop offset="1" stop-color="#5577FF"/>
</linearGradient>
<linearGradient id="paint12_linear_363_5882" x1="61.4662" y1="28.5711" x2="131.142" y2="28.5711" gradientUnits="userSpaceOnUse">
<stop stop-color="#40D5E6"/>
<stop offset="1" stop-color="#5577FF"/>
</linearGradient>
<clipPath id="clip0_363_5882">
<rect width="237" height="158" fill="white" transform="translate(0 0.180664)"/>
</clipPath>
</defs>
</svg>
