<svg width="222" height="161" viewBox="0 0 222 161" fill="none" xmlns="http://www.w3.org/2000/svg">
<path d="M30.3525 53.687C26.9371 29.9852 45.7339 8.85099 70.998 17.6438C97.764 26.9574 95.7414 48.1037 107.804 54.9708C119.855 61.8379 165.091 38.2209 188.272 59.125C201.376 70.9335 201.909 80.9254 193.77 94.5506C188.005 104.203 171.813 120.105 131.978 120.105C103.468 120.105 95.257 132.834 74.0259 149.197C46.5574 170.355 29.8075 157.287 39.6903 122.867C48.9797 90.4933 35.5483 89.8514 30.3525 53.687Z" fill="#F1F2F7"/>
<path d="M110.601 82.6942C110.601 82.6942 90.1207 80.6837 85.3125 81.6526C80.5043 82.6215 93.2212 112.827 93.2212 112.827L99.5554 110.768L94.3354 90.4817C94.3354 90.4817 107.307 96.0772 120.459 94.539C120.459 94.539 120.363 85.7099 110.601 82.6942Z" fill="#37B37F"/>
<path d="M152.469 129.104L157.786 129.795C157.786 129.795 159.203 136.153 156.684 140.489C154.165 144.825 151.234 146.908 147.855 147.756L144.379 142.282L152.469 129.104Z" fill="#283444"/>
<path d="M84.1626 91.7169C90.4968 82.3548 90.836 74.9306 90.8481 74.1191C91.7928 74.8216 92.253 75.2334 92.253 75.2334L153.076 125.302C155.753 144.292 139.378 147.114 139.378 147.114C139.378 147.114 93.2461 122.879 68.6602 101.866C69.5927 101.806 77.8405 101.055 84.1626 91.7169Z" fill="white"/>
<path d="M150.157 122.892L153.076 125.29C155.752 144.28 139.378 147.102 139.378 147.102C139.378 147.102 138.058 146.412 135.732 145.152" stroke="#F1F2F7" stroke-width="0.363339"/>
<path d="M42.3535 58.4961C70.4033 60.4945 86.257 70.7043 90.8472 74.1197C90.823 74.9311 90.4838 82.3554 84.1617 91.7174C77.8396 101.067 69.5918 101.806 68.6472 101.867C68.6351 101.855 68.6108 101.842 68.5987 101.818C44.0128 80.793 42.3535 58.4961 42.3535 58.4961Z" fill="#FE8163"/>
<path d="M170.032 123.364L169.475 121.572L144.017 98.9113L119.988 98.0635L124.457 101.988L170.032 123.364Z" fill="#FEAC00"/>
<path d="M99.0101 113.966L99.87 118.411L96.8543 119.319L94.6621 114.511L99.0101 113.966Z" fill="#FFDFD7"/>
<path d="M143.47 159.419L142.913 160.122L110.806 145.806L99.373 123.86L104.847 126.682L143.47 159.419Z" fill="#FEAC00"/>
<path d="M170.031 123.363L144.173 101.006L124.468 101.987L150.192 122.855C150.192 122.843 156.902 120.699 170.031 123.363ZM135.259 144.485C135.259 144.485 138.711 153.666 143.471 159.419L112.248 145.248L104.848 126.682L135.259 144.485Z" fill="#FFC933"/>
<path d="M151.452 148.458L150.689 149.318L123.644 131.236L111.061 120.166L115.118 116L151.452 148.458Z" fill="#FEAC00"/>
<path d="M142.431 134.663C142.431 134.663 148.498 142.112 151.453 148.458L124.7 130.121L115.107 116.012L142.431 134.663Z" fill="#FFC933"/>
<path d="M120.459 94.5388C120.459 94.5388 118.993 96.743 95.5339 95.2655C95.5339 95.2655 99.24 108.515 100.451 114.898L92.1912 116.715C92.1912 116.715 84.9486 94.781 84.9727 91.8016C84.9971 88.8223 87.2255 87.6717 93.1722 86.1214C99.1188 84.5712 110.298 82.7666 110.298 82.7666C110.298 82.7666 117.673 84.5591 119.248 87.7565C120.81 90.9659 120.459 94.5388 120.459 94.5388Z" fill="#37B37F"/>
<path d="M132.027 62.4801L132.233 58.7256L130.331 58.7377L128.551 61.8019L132.027 62.4801Z" fill="#FFDFD7"/>
<path d="M132.195 59.4643C132.195 59.4643 135.417 58.459 136.919 54.5592C138.433 50.6594 134.787 48.2613 132.05 48.9395C129.313 49.6178 127.096 55.6734 126.903 56.4243C126.709 57.1873 125.401 60.6148 132.195 59.4643Z" fill="#FFDFD7"/>
<path d="M130.198 50.1873C130.198 50.1873 129.98 48.0436 133.48 47.5713C136.968 47.0989 138.288 52.8881 142.503 54.2688C146.706 55.6495 150.751 55.3831 154.033 58.4472C157.315 61.4993 157.691 64.8299 157.582 67.676C157.485 70.5222 154.881 68.2332 153.948 70.8855C153.016 73.5379 150.351 72.1451 149.83 73.1988C149.31 74.2525 146.451 79.2181 144.695 76.045C142.939 72.8718 143.024 69.735 139.197 68.0394C136.411 66.8161 133.298 62.6014 132.208 59.4646C131.797 58.2777 132.075 57.0665 132.184 56.4852C132.584 54.4505 132.899 53.0214 132.402 51.9071C132.087 51.241 131.76 50.6233 130.198 50.1873Z" fill="#4488FB"/>
<path d="M114.767 53.5182L113.156 40.6439L115.603 39.8809L118.606 51.2292L123.729 64.7938L119.394 69.1902L114.767 53.5182Z" fill="#FFDFD7"/>
<path d="M125.085 63.9579C125.085 63.9579 121.537 57.224 118.921 51.2168C118.921 51.2168 117.758 52.6459 114.439 53.6027L118.642 70.0014L125.085 63.9579Z" fill="#FFF9B3"/>
<path d="M99.8697 118.41L101.517 121.535L91.6824 125.35C91.6824 125.35 91.1011 123.642 96.854 119.319L99.8697 118.41Z" fill="#4488FB"/>
<path d="M91.6959 78.9757C91.6959 78.9757 89.419 77.365 88.2078 76.9532C86.9967 76.5414 89.0193 78.6124 89.0193 78.6124C89.0193 78.6124 86.3669 78.6124 84.8409 78.9152C83.3149 79.218 85.0952 82.6213 86.3306 82.7666C87.5659 82.8998 92.471 81.4465 92.471 81.4465C92.471 81.4465 93.4157 79.7024 91.6959 78.9757ZM115.604 39.8805C115.604 39.8805 117.009 38.1122 117.13 37.5309C117.239 36.9495 116.56 37.325 115.846 38.0032C115.846 38.0032 116.524 34.7816 116.233 34.3577C115.943 33.9338 113.496 33.4009 113.06 35.6294C112.806 36.9253 113.145 40.6435 113.145 40.6435C113.145 40.6435 115.034 41.4186 115.604 39.8805Z" fill="#FFDFD7"/>
<path d="M102.971 84.0621L110.298 82.7783" stroke="#52CB96" stroke-width="0.363339" stroke-linecap="round" stroke-linejoin="round"/>
<path d="M108.445 80.1751L92.4704 81.4589L91.6953 78.9761L106.968 75.7908L117.759 69.832L121.211 73.7803L108.445 80.1751Z" fill="#FFDFD7"/>
<path d="M132.207 64.7203C132.207 64.7203 125.195 88.8461 120.556 94.8654C120.556 94.8654 119.539 89.8392 109.959 82.5118C109.959 82.5118 117.008 69.5164 124.48 64.0421C131.941 58.5799 132.704 63.0611 132.207 64.7203Z" fill="#FFF9B3"/>
<path d="M119.685 68.4023C119.685 68.4023 110.48 73.8888 106.641 75.4269C106.641 75.4269 107.803 78.8665 107.973 80.9981L113.92 78.7091L118.728 71.7693L119.685 68.4023Z" fill="#FFF9B3"/>
<path d="M125.934 63.0371C125.934 63.0371 122.397 65.0113 119.685 68.3903C119.685 68.3903 113.895 71.8299 111.013 73.2954C108.118 74.7609 106.641 75.4149 106.641 75.4149C106.641 75.4149 107.392 77.2558 107.973 80.9861L117.141 77.4132" stroke="#FBF17E" stroke-width="0.363339" stroke-linecap="round" stroke-linejoin="round"/>
<path d="M68.0298 37.7009C65.5713 33.7284 60.7146 31.5847 56.4878 31.4878C50.3231 31.3425 49.0393 35.7631 45.2 34.661C40.5735 33.3287 41.4576 26.607 35.8138 24.7782C33.8275 24.1363 30.6059 23.8577 28.2079 25.4079C24.6714 27.697 24.3444 29.3078 22.6488 30.7369C22.237 31.0882 21.4134 31.7179 20.2871 32.1418C17.8648 33.0381 15.5273 32.2872 14.2678 31.8754C11.1673 30.8459 11.2399 29.6227 9.01145 29.2351C7.18264 28.9202 4.8815 29.3562 3.24647 30.7369C0.303423 33.2197 0.581983 37.8341 0.715208 39.8688C0.73943 40.2806 0.775764 40.6197 0.812098 40.8499H69.4953C69.0956 39.4328 68.3084 38.149 68.0298 37.7009Z" fill="#CED5E5"/>
<path d="M148.715 34.8543C158.274 34.8543 166.022 27.1057 166.022 17.5473C166.022 7.98887 158.274 0.240234 148.715 0.240234C139.157 0.240234 131.408 7.98887 131.408 17.5473C131.408 27.1057 139.157 34.8543 148.715 34.8543Z" fill="#FFC933"/>
<path d="M219.966 90.7839C219.494 89.3669 217.592 83.8684 212.021 80.6831C204.887 76.6016 197.209 79.4235 196.749 79.6052C188.041 82.96 186.381 92.0677 181.101 91.4743C178.025 91.1352 178.037 87.9741 173.931 87.0052C169.571 85.9757 164.012 88.2163 161.747 92.3221C160.705 94.2114 160.415 96.4036 160.584 98.3414H220.995C221.153 95.7859 220.693 93.0003 219.966 90.7839Z" fill="#CED5E5"/>
</svg>
