<svg width="173" height="150" viewBox="0 0 173 150" fill="none" xmlns="http://www.w3.org/2000/svg">
<g clip-path="url(#clip0_363_5664)">
<path d="M168.243 134.143H0.166992" stroke="#A1A1A1" stroke-width="1.1128" stroke-miterlimit="10"/>
<path d="M154.582 100.694C154.328 100.223 153.965 99.861 153.674 99.4266C153.456 99.137 153.311 98.8474 153.129 98.5216C152.802 97.9424 152.475 97.3994 151.93 97.0374C151.494 96.7116 150.949 96.5668 150.513 96.241C150.331 96.0962 150.15 95.9152 149.968 95.7342C149.932 95.698 149.895 95.6618 149.823 95.5894C148.805 94.6844 147.425 94.3948 146.08 94.1414C145.862 94.1052 145.644 94.069 145.463 94.1414C145.281 94.25 145.172 94.431 145.063 94.612C144.409 95.8066 143.755 97.0736 143.828 98.413C143.828 98.4854 143.828 98.5216 143.828 98.594C143.864 98.8474 143.9 99.1008 143.864 99.3542C143.864 99.8972 143.61 100.404 143.573 100.947C143.537 101.599 143.755 102.214 143.973 102.793C144.082 103.119 144.227 103.445 144.336 103.807C144.482 104.314 144.554 104.82 144.736 105.327C145.063 106.16 145.79 106.775 146.589 107.101C147.316 107.427 148.188 107.535 148.951 107.608C149.496 107.68 150.041 107.608 150.549 107.427C150.876 107.318 151.203 107.21 151.53 107.101C151.821 106.92 152.148 106.739 152.439 106.558C152.911 106.232 153.274 105.906 153.601 105.436C154.037 104.784 154.473 104.06 154.691 103.264C155.018 102.395 155.018 101.454 154.582 100.694Z" fill="#DBDBDB"/>
<path d="M146.734 96.9287C146.734 96.9287 154.255 107.391 153.856 125.744" stroke="black" stroke-width="0.4888" stroke-miterlimit="10"/>
<path d="M149.132 111.191C148.914 110.938 148.623 110.757 148.369 110.54C148.187 110.395 148.042 110.214 147.897 110.069C147.606 109.78 147.315 109.454 146.916 109.309C146.589 109.164 146.225 109.164 145.898 109.019C145.753 108.947 145.608 108.875 145.462 108.766C145.426 108.73 145.39 108.73 145.353 108.694C144.59 108.259 143.646 108.295 142.774 108.332C142.628 108.332 142.483 108.332 142.374 108.404C142.265 108.513 142.229 108.621 142.192 108.766C141.974 109.599 141.72 110.504 141.974 111.336C141.974 111.372 142.011 111.409 142.011 111.445C142.047 111.59 142.12 111.734 142.156 111.915C142.229 112.241 142.156 112.603 142.229 112.965C142.301 113.363 142.519 113.725 142.774 114.087C142.919 114.268 143.028 114.449 143.137 114.667C143.282 114.956 143.428 115.282 143.609 115.535C143.936 116.006 144.481 116.296 145.026 116.368C145.535 116.477 146.08 116.404 146.589 116.332C146.952 116.296 147.279 116.151 147.57 115.97C147.751 115.861 147.969 115.753 148.151 115.608C148.333 115.463 148.478 115.282 148.623 115.137C148.878 114.884 149.059 114.594 149.168 114.268C149.35 113.798 149.532 113.255 149.532 112.748C149.677 112.241 149.532 111.626 149.132 111.191Z" fill="#DBDBDB"/>
<path d="M143.682 109.997C143.682 109.997 149.931 115.463 152.329 127.047" stroke="black" stroke-width="0.4888" stroke-miterlimit="10"/>
<path d="M160.069 107.1C160.287 106.702 160.614 106.376 160.868 105.978C161.05 105.725 161.195 105.471 161.34 105.182C161.631 104.675 161.922 104.204 162.394 103.878C162.794 103.589 163.266 103.48 163.629 103.191C163.811 103.046 163.956 102.901 164.102 102.756C164.138 102.72 164.174 102.684 164.211 102.648C165.083 101.851 166.318 101.598 167.48 101.381C167.662 101.344 167.844 101.308 168.025 101.381C168.171 101.489 168.28 101.634 168.352 101.815C168.934 102.865 169.515 103.951 169.442 105.145C169.442 105.182 169.442 105.254 169.442 105.29C169.406 105.507 169.406 105.725 169.406 105.942C169.406 106.412 169.624 106.883 169.66 107.354C169.697 107.933 169.515 108.44 169.297 108.983C169.188 109.272 169.079 109.562 168.97 109.852C168.861 110.286 168.788 110.757 168.607 111.155C168.316 111.879 167.662 112.422 166.972 112.711C166.318 113.001 165.591 113.073 164.901 113.146C164.429 113.182 163.956 113.146 163.484 113.001C163.193 112.929 162.903 112.82 162.612 112.711C162.358 112.567 162.067 112.386 161.849 112.241C161.449 111.951 161.122 111.662 160.832 111.263C160.468 110.684 160.069 110.033 159.887 109.381C159.705 108.621 159.705 107.788 160.069 107.1Z" fill="#DBDBDB"/>
<path d="M166.972 103.77C166.972 103.77 159.451 114.231 159.85 132.585" stroke="black" stroke-width="0.4888" stroke-miterlimit="10"/>
<path d="M153.855 93.4171C154.073 92.8379 154.437 92.3673 154.691 91.8243C154.873 91.4623 155.018 91.0641 155.163 90.7021C155.454 90.0143 155.745 89.3265 156.29 88.7835C156.762 88.3491 157.343 88.0957 157.779 87.6251C157.997 87.4079 158.143 87.1907 158.324 86.9373C158.361 86.8649 158.397 86.8287 158.47 86.7563C159.451 85.5255 161.049 84.9825 162.539 84.4757C162.757 84.4033 163.011 84.3309 163.229 84.3671C163.447 84.4757 163.593 84.6567 163.738 84.8377C164.683 86.1047 165.664 87.4441 165.773 89.0007C165.773 89.0731 165.773 89.1455 165.773 89.2179C165.773 89.5075 165.773 89.7971 165.845 90.0867C165.954 90.7021 166.281 91.2813 166.427 91.8967C166.572 92.6207 166.427 93.3809 166.281 94.1049C166.172 94.5031 166.1 94.9013 166.027 95.2995C165.954 95.9149 165.954 96.4941 165.809 97.1095C165.555 98.0869 164.828 98.9195 163.956 99.4625C163.157 99.9331 162.212 100.223 161.304 100.44C160.686 100.585 160.068 100.585 159.414 100.512C159.015 100.44 158.615 100.368 158.215 100.295C157.852 100.15 157.452 99.9693 157.089 99.8245C156.508 99.5349 155.999 99.2091 155.563 98.7023C154.945 98.0145 154.328 97.2543 153.928 96.4217C153.637 95.4805 153.528 94.3945 153.855 93.4171Z" fill="#DBDBDB"/>
<path d="M162.285 87.7334C162.285 87.7334 154.909 102.503 157.343 126.902" stroke="black" stroke-width="0.4888" stroke-miterlimit="10"/>
<path d="M156.726 123.499H156.69H156.653L147.788 123.68L148.805 134.974C148.987 136.821 149.786 138.595 151.131 139.898L151.748 140.513C152.475 141.237 153.492 141.672 154.546 141.672H156.653H156.726H158.833C159.887 141.672 160.868 141.273 161.631 140.513L162.249 139.898C163.593 138.558 164.392 136.821 164.574 134.974L165.591 123.68L156.726 123.499Z" fill="#DBDBDB"/>
<path d="M163.483 146.886C160.867 146.524 158.324 145.148 156.834 142.976C155.344 140.804 154.981 137.799 156.18 135.446C157.125 133.636 158.832 132.333 160.685 131.428C162.502 130.523 164.5 129.908 166.353 129.075C168.424 128.134 170.35 126.939 172.094 125.491" stroke="white" stroke-width="0.6272" stroke-miterlimit="10"/>
<path d="M165.881 142.65C164.319 142.686 162.647 142.433 161.23 141.745C159.305 140.767 158.687 138.125 160.431 136.604C161.194 135.953 162.175 135.627 163.047 135.193C164.028 134.722 164.973 134.179 165.845 133.564C167.625 132.369 169.26 130.921 170.641 129.292" stroke="white" stroke-width="0.6272" stroke-miterlimit="10"/>
<path d="M158.651 117.816C159.014 120.604 159.305 123.572 157.961 126.034C156.435 128.785 153.237 130.052 150.403 131.428C147.569 132.803 144.59 134.867 144.19 137.98" stroke="white" stroke-width="0.6272" stroke-miterlimit="10"/>
<path d="M155.708 120.64C156.107 123.029 155.526 125.418 153.128 126.504C152.401 126.83 151.53 126.939 150.803 126.577C148.841 125.635 148.768 122.341 148.986 120.531" stroke="white" stroke-width="0.6272" stroke-miterlimit="10"/>
<path d="M135.543 117.02H26.908C24.728 117.02 22.8387 115.246 22.6934 113.074V4.83547C22.548 2.66346 24.2194 0.889648 26.3993 0.889648H135.035C137.215 0.889648 139.104 2.66346 139.249 4.83547V113.074C139.395 115.282 137.723 117.02 135.543 117.02Z" fill="#DDDEE0" stroke="black" stroke-width="0.5164" stroke-miterlimit="10"/>
<path d="M22.7656 11.6416H139.067" stroke="black" stroke-width="0.5164" stroke-miterlimit="10"/>
<path d="M131.364 4.98047L134.126 7.76788" stroke="black" stroke-width="0.5164" stroke-miterlimit="10"/>
<path d="M131.364 7.76788L134.126 4.98047" stroke="black" stroke-width="0.5164" stroke-miterlimit="10"/>
<path d="M30.6134 6.24744C30.6134 5.27004 29.814 4.47363 28.833 4.47363C27.8521 4.47363 27.0527 5.27004 27.0527 6.24744C27.0527 7.22485 27.8521 8.02125 28.833 8.02125C29.814 7.98505 30.6134 7.22485 30.6134 6.24744Z" fill="#928DC7"/>
<path d="M36.9718 6.24744C36.9718 5.27004 36.1724 4.47363 35.1914 4.47363C34.2105 4.47363 33.4111 5.27004 33.4111 6.24744C33.4111 7.22485 34.2105 8.02125 35.1914 8.02125C36.1724 7.98505 36.9718 7.22485 36.9718 6.24744Z" fill="#FFB940"/>
<path d="M43.3302 6.24744C43.3302 5.27004 42.5308 4.47363 41.5498 4.47363C40.5689 4.47363 39.7695 5.27004 39.7695 6.24744C39.7695 7.22485 40.5689 8.02125 41.5498 8.02125C42.5308 7.98505 43.3302 7.22485 43.3302 6.24744Z" fill="#00C1A3"/>
<path d="M132.71 44.5828C132.71 43.171 131.547 42.0488 130.166 42.0488H59.5716C58.1546 42.0488 57.0283 43.2072 57.0283 44.5828V57.2529C57.0283 58.6647 58.191 59.7869 59.5716 59.7869H125.116L128.059 62.1761C128.422 62.4657 129.004 62.1761 128.931 61.7055L128.786 60.2575C128.786 60.0765 128.858 59.8955 129.004 59.8231C130.493 59.8231 132.492 59.7507 132.637 57.8321C132.673 57.6511 132.71 57.4701 132.71 57.2891V44.5828Z" fill="#00C1A3" stroke="black" stroke-width="0.5164" stroke-miterlimit="10"/>
<path d="M66.8384 45.5605L68.5824 49.072L72.47 49.615L69.6361 52.33L70.3264 56.1672L66.8384 54.3572L63.3868 56.1672L64.0408 52.33L61.2432 49.615L65.1308 49.072L66.8384 45.5605Z" fill="#FFB940"/>
<path d="M69.2554 45.3592L67.5801 44.7588L63.3739 56.4088L65.0492 57.0092L69.2554 45.3592Z" fill="#FFC86B"/>
<path d="M71.1672 45.8006L70.2441 45.4697L66.038 57.1197L66.9611 57.4506L71.1672 45.8006Z" fill="#FFC86B"/>
<path d="M80.7906 45.5596L82.5346 49.071L86.4222 49.614L83.6245 52.329L84.2785 56.1662L80.7906 54.3562L77.339 56.1662L77.9929 52.329L75.1953 49.614L79.0829 49.071L80.7906 45.5596Z" fill="#FFB940"/>
<path d="M80.7906 45.5596L82.5346 49.071L86.4222 49.614L83.6245 52.329L84.2785 56.1662L80.7906 54.3562L77.339 56.1662L77.9929 52.329L75.1953 49.614L79.0829 49.071L80.7906 45.5596Z" fill="#FFB940"/>
<path d="M83.2085 45.3573L81.5332 44.7568L77.3271 56.4069L79.0023 57.0073L83.2085 45.3573Z" fill="#FFC86B"/>
<path d="M85.1204 45.7986L84.1973 45.4678L79.9911 57.1178L80.9142 57.4486L85.1204 45.7986Z" fill="#FFC86B"/>
<path d="M94.7781 45.5605L96.4857 49.072L100.373 49.615L97.5757 52.33L98.2297 56.1672L94.7781 54.3572L91.2901 56.1672L91.9441 52.33L89.1465 49.615L93.0341 49.072L94.7781 45.5605Z" fill="#FFB940"/>
<path d="M94.7781 45.5605L96.4857 49.072L100.373 49.615L97.5757 52.33L98.2297 56.1672L94.7781 54.3572L91.2901 56.1672L91.9441 52.33L89.1465 49.615L93.0341 49.072L94.7781 45.5605Z" fill="#FFB940"/>
<path d="M97.1606 45.3563L95.4854 44.7559L91.2792 56.4059L92.9545 57.0063L97.1606 45.3563Z" fill="#FFC86B"/>
<path d="M99.0725 45.7986L98.1494 45.4678L93.9433 57.1178L94.8664 57.4486L99.0725 45.7986Z" fill="#FFC86B"/>
<path d="M108.73 45.5605L110.438 49.072L114.326 49.615L111.528 52.33L112.182 56.1672L108.73 54.3572L105.242 56.1672L105.933 52.33L103.099 49.615L106.986 49.072L108.73 45.5605Z" fill="#FFB940"/>
<path d="M108.73 45.5605L110.438 49.072L114.326 49.615L111.528 52.33L112.182 56.1672L108.73 54.3572L105.242 56.1672L105.933 52.33L103.099 49.615L106.986 49.072L108.73 45.5605Z" fill="#FFB940"/>
<path d="M111.114 45.3543L109.438 44.7539L105.232 56.4039L106.908 57.0044L111.114 45.3543Z" fill="#FFC86B"/>
<path d="M113.026 45.7957L112.103 45.4648L107.896 57.1149L108.819 57.4457L113.026 45.7957Z" fill="#FFC86B"/>
<path d="M122.754 45.5605L124.498 49.072L128.35 49.615L125.552 52.33L126.206 56.1672L122.754 54.3572L119.303 56.1672L119.957 52.33L117.159 49.615L121.01 49.072L122.754 45.5605Z" fill="white"/>
<path d="M32.5036 17.3242H69.8538C71.0892 17.3242 72.1065 18.3378 72.1065 19.5686V33.9763C72.1065 35.2071 71.0892 36.2207 69.8538 36.2207H68.4005C68.1099 36.2207 67.8555 36.4741 67.8919 36.7637L68.0372 38.3565C68.0735 38.8633 67.4922 39.1891 67.0925 38.8633L63.7863 36.2207H32.5036C31.2683 36.2207 30.251 35.2071 30.251 33.9763V19.5686C30.251 18.3378 31.2683 17.3242 32.5036 17.3242Z" fill="#00C1A3" stroke="black" stroke-width="0.5164" stroke-miterlimit="10"/>
<path d="M41.2964 26.1562C40.6787 26.6631 39.8794 26.9527 39.0074 26.9527C38.1354 26.9527 37.3361 26.6631 36.7184 26.1562C34.6475 27.0251 33.2305 29.0523 33.2305 31.4415H44.7843C44.7843 29.0523 43.331 27.0251 41.2964 26.1562Z" fill="white"/>
<path d="M37.8447 25.7947C38.2081 25.9757 38.6077 26.0481 39.0074 26.0481C39.4434 26.0481 39.8431 25.9395 40.17 25.7947C41.0784 25.3603 41.696 24.4191 41.696 23.3693C41.696 21.8851 40.497 20.6543 38.9711 20.6543C37.4814 20.6543 36.2461 21.8489 36.2461 23.3693C36.2824 24.4191 36.9364 25.3603 37.8447 25.7947Z" fill="white"/>
<path d="M69.127 21.2695H46.7822V21.5953H69.127V21.2695Z" fill="white"/>
<path d="M69.127 23.1162H46.7822V23.442H69.127V23.1162Z" fill="white"/>
<path d="M69.127 24.9619H46.7822V25.2877H69.127V24.9619Z" fill="white"/>
<path d="M69.127 26.8086H46.7822V27.1344H69.127V26.8086Z" fill="white"/>
<path d="M69.127 28.6543H46.7822V28.9801H69.127V28.6543Z" fill="white"/>
<path d="M57.6094 30.501H46.7822V30.8268H57.6094V30.501Z" fill="white"/>
<path d="M109.456 94.0322H130.711C131.692 94.0322 132.528 94.8286 132.528 95.8422V107.462C132.528 108.44 131.728 109.273 130.711 109.273H129.512C129.258 109.273 129.076 109.49 129.112 109.707L129.221 110.974C129.258 111.408 128.785 111.662 128.458 111.408L125.806 109.273H109.456C108.475 109.273 107.64 108.476 107.64 107.462V95.8422C107.64 94.8286 108.439 94.0322 109.456 94.0322Z" fill="#928DC7" stroke="black" stroke-width="0.5164" stroke-miterlimit="10"/>
<path d="M124.426 102.43C124.807 102.43 125.116 102.122 125.116 101.742C125.116 101.363 124.807 101.055 124.426 101.055C124.044 101.055 123.735 101.363 123.735 101.742C123.735 102.122 124.044 102.43 124.426 102.43Z" fill="#F2F2F2"/>
<path d="M120.066 102.43C120.448 102.43 120.757 102.122 120.757 101.742C120.757 101.363 120.448 101.055 120.066 101.055C119.685 101.055 119.376 101.363 119.376 101.742C119.376 102.122 119.685 102.43 120.066 102.43Z" fill="#F2F2F2"/>
<path d="M115.706 102.43C116.087 102.43 116.396 102.122 116.396 101.742C116.396 101.363 116.087 101.055 115.706 101.055C115.325 101.055 115.016 101.363 115.016 101.742C115.016 102.122 115.325 102.43 115.706 102.43Z" fill="#F2F2F2"/>
<path d="M130.348 68.0049H109.784C108.621 68.0049 107.677 68.9461 107.677 70.1045V83.4986C107.677 84.657 108.621 85.5982 109.784 85.5982H111.128C111.419 85.5982 111.637 85.8516 111.601 86.105L111.455 87.5892C111.419 88.0598 111.964 88.3856 112.364 88.0598L115.452 85.5982H130.385C131.547 85.5982 132.492 84.657 132.492 83.4986V70.1045C132.456 68.9461 131.511 68.0049 130.348 68.0049Z" fill="#FFB940" stroke="black" stroke-width="0.5164" stroke-miterlimit="10"/>
<path d="M116.978 80.6751H115.016C114.798 80.6751 114.616 80.4941 114.616 80.2769V75.1365C114.616 74.9193 114.798 74.7383 115.016 74.7383H116.978C117.196 74.7383 117.378 74.9193 117.378 75.1365V80.2769C117.341 80.5303 117.196 80.6751 116.978 80.6751Z" fill="#0061A8"/>
<path d="M125.48 75.607C125.48 75.1002 125.044 74.6657 124.535 74.6657H121.556L121.992 72.5299C121.992 72.4937 121.992 72.4213 121.992 72.3851C121.992 72.2041 121.919 72.0231 121.774 71.8783C121.483 71.5887 121.047 71.5887 120.756 71.8783L118.14 74.4847C117.959 74.6657 117.85 74.883 117.85 75.1364V79.8424C117.85 80.3492 118.286 80.7836 118.794 80.7836H123.045C123.445 80.7836 123.772 80.5302 123.917 80.2044C123.917 80.2044 125.407 76.6568 125.407 76.5482V75.6432V75.607H125.48Z" fill="#F2F2F2"/>
<path d="M116.287 6.53711H87.3658C85.7672 6.53711 84.4229 7.84032 84.4229 9.46932V28.2934C84.4229 29.8862 85.7308 31.2256 87.3658 31.2256H89.2551C89.6548 31.2256 89.9455 31.5514 89.9091 31.9496L89.6911 34.0131C89.6185 34.7009 90.4178 35.0991 90.9628 34.7009L95.2864 31.2256H116.25C117.849 31.2256 119.193 29.9224 119.193 28.2934V9.46932C119.193 7.87652 117.885 6.53711 116.287 6.53711Z" fill="#FFB940" stroke="black" stroke-width="0.5164" stroke-miterlimit="10"/>
<path d="M91.4356 14.3926C92.3185 14.3926 93.0342 13.6795 93.0342 12.7998C93.0342 11.9202 92.3185 11.207 91.4356 11.207C90.5527 11.207 89.8369 11.9202 89.8369 12.7998C89.8369 13.6795 90.5527 14.3926 91.4356 14.3926Z" fill="white"/>
<path d="M91.1086 13.6327L90.3456 12.8725C90.3093 12.8363 90.3093 12.7639 90.3456 12.6915C90.3819 12.6553 90.4546 12.6553 90.5273 12.6915L91.1086 13.2707L92.3803 12.0037C92.4166 11.9675 92.4893 11.9675 92.5619 12.0037C92.5983 12.0399 92.5983 12.1123 92.5619 12.1847L91.1086 13.6327Z" fill="#FFB940"/>
<path d="M94.6328 12.7998H113.817" stroke="white" stroke-width="1.3311" stroke-miterlimit="10" stroke-linecap="round"/>
<path d="M91.4356 19.8946C92.3185 19.8946 93.0342 19.1815 93.0342 18.3018C93.0342 17.4221 92.3185 16.709 91.4356 16.709C90.5527 16.709 89.8369 17.4221 89.8369 18.3018C89.8369 19.1815 90.5527 19.8946 91.4356 19.8946Z" fill="white"/>
<path d="M91.1086 19.1347L90.3456 18.3745C90.3093 18.3383 90.3093 18.2659 90.3456 18.1935C90.3819 18.1573 90.4546 18.1573 90.5273 18.1935L91.1086 18.7727L92.3803 17.5057C92.4166 17.4695 92.4893 17.4695 92.5619 17.5057C92.5983 17.5419 92.5983 17.6143 92.5619 17.6867L91.1086 19.1347Z" fill="#FFB940"/>
<path d="M94.6328 18.3018H113.817" stroke="white" stroke-width="1.3311" stroke-miterlimit="10" stroke-linecap="round"/>
<path d="M91.4356 25.3975C92.3185 25.3975 93.0342 24.6844 93.0342 23.8047C93.0342 22.925 92.3185 22.2119 91.4356 22.2119C90.5527 22.2119 89.8369 22.925 89.8369 23.8047C89.8369 24.6844 90.5527 25.3975 91.4356 25.3975Z" fill="white"/>
<path d="M91.1086 24.6376L90.3456 23.8774C90.3093 23.8412 90.3093 23.7688 90.3456 23.6964C90.3819 23.6602 90.4546 23.6602 90.5273 23.6964L91.1086 24.2756L92.3803 23.0086C92.4166 22.9724 92.4893 22.9724 92.5619 23.0086C92.5983 23.0448 92.5983 23.1172 92.5619 23.1896L91.1086 24.6376Z" fill="#FFB940"/>
<path d="M94.6328 23.8047H113.817" stroke="white" stroke-width="1.3311" stroke-miterlimit="10" stroke-linecap="round"/>
<path d="M8.01534 42.1221H30.2511C31.4864 42.1221 32.5037 43.1357 32.5037 44.3665V58.8466C32.5037 60.0774 31.4864 61.091 30.2511 61.091H28.7978C28.5071 61.091 28.2528 61.3444 28.2891 61.634L28.4344 63.2268C28.4708 63.7336 27.8894 64.0594 27.4534 63.7336L24.1108 61.0548H8.01534C6.78002 61.0548 5.7627 60.0412 5.7627 58.8104V44.3303C5.7627 43.1357 6.78002 42.1221 8.01534 42.1221Z" fill="#928DC7" stroke="black" stroke-width="0.5164" stroke-miterlimit="10"/>
<path d="M18.189 53.8149C18.189 53.0185 18.2617 52.4755 18.407 52.1859C18.5523 51.8963 18.8793 51.4981 19.4243 50.9913C19.9693 50.3758 20.3326 49.869 20.587 49.5432C20.805 49.2174 20.914 48.783 20.914 48.3124C20.914 47.7332 20.7686 47.2988 20.4416 47.0092C20.151 46.7196 19.715 46.5386 19.1336 46.5386C18.625 46.5386 18.2253 46.6834 17.862 46.9368C17.4987 47.1902 17.3533 47.5884 17.3533 48.1314H15.8273L15.791 48.0952C15.791 47.2264 16.0817 46.5386 16.6993 45.9956C17.317 45.4888 18.1163 45.1992 19.0973 45.1992C20.151 45.1992 20.9866 45.4526 21.5679 45.9956C22.1493 46.5386 22.4399 47.2988 22.4399 48.2762C22.4399 48.964 22.2583 49.6156 21.8586 50.1948C21.459 50.774 20.9866 51.3533 20.3326 51.9687C20.042 52.2583 19.8603 52.5117 19.7876 52.7651C19.715 52.9823 19.6786 53.3443 19.6786 53.8511H18.189V53.8149ZM18.9883 57.1091C18.516 57.1091 18.1527 56.7471 18.1527 56.2765C18.1527 55.8059 18.516 55.4439 18.9883 55.4439C19.4606 55.4439 19.824 55.8059 19.824 56.2765C19.824 56.7471 19.4606 57.1091 18.9883 57.1091Z" fill="#F2F2F2"/>
<path d="M71.561 149.817C99.8141 149.817 122.718 147.856 122.718 145.437C122.718 143.018 99.8141 141.057 71.561 141.057C43.3079 141.057 20.4043 143.018 20.4043 145.437C20.4043 147.856 43.3079 149.817 71.561 149.817Z" fill="#DBDBDB"/>
<path d="M38.6797 65.5431C30.6138 66.1585 23.2018 71.4799 18.6602 77.9959C10.8123 89.1818 11.757 104.929 15.9716 117.346C22.0755 135.265 38.2437 144.749 57.4638 145.075C68.1457 145.256 78.2825 145.473 87.1841 140.007C94.0147 135.808 100.591 125.237 100.082 116.368C99.6463 108.838 95.8313 99.9694 87.6564 98.3042C86.5664 98.087 85.4401 98.087 84.3138 97.9422C82.2428 97.6888 80.4988 98.449 78.6095 99.2454C76.4296 100.187 74.3223 101.236 72.1059 102.105C68.1093 103.734 63.713 104.929 59.5348 103.988C57.1368 103.445 54.8115 102.105 53.6125 99.9694C52.1228 97.2906 52.6315 94.0326 52.8495 90.9918C53.2128 85.8514 52.6315 80.6023 51.1055 75.6791C50.4879 73.6881 49.6885 71.7333 49.0709 69.7423C48.6349 68.4029 48.0172 67.4255 46.7092 66.7739C44.2749 65.6516 41.3683 65.3621 38.6797 65.5431Z" fill="#928DC7"/>
<path d="M34.5741 81.9052C32.3214 88.4936 31.9218 96.4938 34.3197 103.118C36.5724 109.309 41.4047 114.63 47.6176 116.838C53.8305 119.047 70.3983 116.983 67.0557 106.811C66.6197 105.508 65.7477 104.385 64.8757 103.263C58.1541 94.5752 52.3409 85.1632 47.5086 75.2805C46.9273 74.1221 46.3459 72.8913 45.3286 72.0587C44.4929 71.4071 43.3666 71.0813 42.3493 71.4071C41.441 71.6967 40.678 72.4569 39.9877 73.0723C38.3164 74.5927 37.0084 76.4389 35.991 78.4299C35.4824 79.5522 34.9737 80.7106 34.5741 81.9052Z" stroke="black" stroke-width="0.5164" stroke-miterlimit="10"/>
<path d="M63.0234 115.68C63.0234 115.68 73.4873 121.436 71.598 145.328" stroke="black" stroke-width="0.5164" stroke-miterlimit="10"/>
<path d="M33.4118 99.6074C33.4118 99.6074 15.7903 99.7522 12.375 112.096" stroke="black" stroke-width="0.5164" stroke-miterlimit="10"/>
<path d="M45.1475 115.897C45.1475 115.897 35.919 122.45 31.3047 141.853" stroke="black" stroke-width="0.5164" stroke-miterlimit="10"/>
<path d="M36.6818 77.1633C36.6818 77.1633 30.4325 70.9007 19.2783 75.6429" stroke="black" stroke-width="0.5164" stroke-miterlimit="10"/>
<path d="M81.1887 132.55L81.1523 142.94C81.1523 142.94 94.7409 145.981 100.481 142.904C100.481 142.904 99.6821 140.08 89.9812 136.243L90.5262 130.632L81.1887 132.55Z" fill="#D68060"/>
<path d="M88.237 101.129C91.247 101.129 93.687 98.6975 93.687 95.6986C93.687 92.6997 91.247 90.2686 88.237 90.2686C85.2271 90.2686 82.7871 92.6997 82.7871 95.6986C82.7871 98.6975 85.2271 101.129 88.237 101.129Z" fill="#78374B"/>
<path d="M93.6869 95.6982L94.1592 132.55L81.0431 133.238L80.3164 95.6982" fill="#78374B"/>
<path d="M87.0746 90.377L78.3184 92.8748L79.372 98.0514L87.6559 99.5718L87.0746 90.377Z" fill="#78374B"/>
<path d="M37.5162 46.7917C37.1165 46.5383 36.7532 46.2487 36.4625 45.8867C36.3172 45.6695 36.1719 45.4523 36.1719 45.1627C36.1355 44.9093 36.2445 44.6197 36.4988 44.4749C36.8985 44.2215 37.4072 44.5111 37.7705 44.7645C38.5335 45.2713 39.2965 45.8143 40.0595 46.3211C40.5318 46.6469 41.0041 46.9727 41.4765 47.2985C41.8035 47.5157 42.2394 47.8777 42.1304 48.3483C42.0215 48.7465 41.6945 48.9275 41.2948 48.8189C40.8588 48.7103 40.4591 48.4569 40.0595 48.2759C39.6598 48.0587 39.2601 47.8415 38.8605 47.6243C38.3882 47.3709 37.9522 47.0813 37.5162 46.7917Z" fill="#013741"/>
<path d="M36.753 48.7826C36.317 48.6378 35.8811 48.4568 35.5177 48.1672C35.2997 48.0224 35.1181 47.8052 35.0454 47.5518C34.9727 47.2984 34.9727 47.0088 35.1544 46.8278C35.4814 46.4658 36.0264 46.6106 36.4624 46.7554C37.3344 47.045 38.2064 47.3708 39.0784 47.6604C39.6233 47.8414 40.1683 48.0586 40.7133 48.2396C41.0767 48.3844 41.6217 48.6016 41.6217 49.0722C41.6217 49.5066 41.3673 49.7238 40.9313 49.76C40.4953 49.76 40.023 49.6514 39.587 49.5428C39.151 49.4342 38.6787 49.3256 38.2427 49.217C37.7704 49.1084 37.2617 48.9636 36.753 48.7826Z" fill="#013741"/>
<path d="M36.9352 51.1716C36.4629 51.2078 35.9905 51.2078 35.5545 51.063C35.3002 50.9906 35.0459 50.882 34.9005 50.6648C34.7552 50.4476 34.6462 50.1942 34.7552 49.9408C34.9369 49.5064 35.4819 49.434 35.9542 49.3978C36.8625 49.3616 37.8072 49.3254 38.7155 49.2892C39.2968 49.253 39.8782 49.253 40.4595 49.2168C40.8591 49.2168 41.4405 49.2168 41.5858 49.6512C41.7311 50.0494 41.5858 50.3752 41.2225 50.52C40.8228 50.701 40.3142 50.7372 39.8782 50.8096C39.4058 50.882 38.9698 50.9544 38.4975 50.9906C37.9525 51.0992 37.4439 51.1354 36.9352 51.1716Z" fill="#013741"/>
<path d="M40.4593 51.3168C40.3503 50.8824 40.4593 50.448 40.6047 50.0136C40.859 49.362 41.186 48.7466 41.6946 48.2398C41.9126 48.0226 42.167 47.8054 42.494 47.6968C42.7846 47.5882 43.148 47.6244 43.4023 47.8054C43.4386 47.8416 43.475 47.8778 43.5113 47.914C43.5839 48.0588 43.475 48.1674 43.366 48.276C42.8573 48.8552 42.4576 49.4706 42.167 50.1946C42.0216 50.5566 41.9126 50.9186 41.8036 51.2806C41.731 51.5702 41.622 52.0771 41.2586 52.0771C40.859 52.0771 40.532 51.6789 40.4593 51.3168Z" fill="#FF5A13"/>
<path d="M42.3484 57.7605C41.5491 56.2039 41.3311 54.3939 41.4037 52.6563C41.4764 51.3169 41.7671 49.9413 42.6027 48.8553C43.1477 48.1313 43.8744 47.5883 44.6737 47.1901C46.345 46.3575 48.3796 46.1765 50.1963 46.6833C53.0666 47.5159 55.8279 50.4481 55.0649 53.5975C53.1029 52.2943 50.6686 51.7151 48.3433 51.9323C47.7983 51.9685 47.2533 52.0771 46.8537 52.4391C46.4903 52.7287 46.2723 53.1993 46.1633 53.6337C45.9453 54.4663 46.0543 55.3713 46.1997 56.2039C46.345 57.0727 46.5993 57.9415 46.672 58.8103C46.7083 59.2447 46.7083 59.6791 46.672 60.0774C46.6357 60.4032 46.563 60.8014 46.1997 60.91C45.8727 61.0186 45.5093 60.8738 45.2187 60.729C44.8554 60.548 44.492 60.2946 44.165 60.005C43.511 59.4619 42.9297 58.7741 42.53 58.0139C42.4574 57.9415 42.3847 57.8329 42.3484 57.7605Z" fill="#013741"/>
<path d="M45.8366 58.9189C45.8366 58.9189 45.1462 63.5888 44.6376 67.8242C44.5286 68.8378 45.0372 70.9012 46.0182 71.1546L48.7069 72.132C52.8125 71.6614 52.8851 69.8876 52.8125 68.7292L52.3038 63.8422L45.8366 58.9189Z" fill="#D68060"/>
<path d="M52.4132 64.8558C51.2142 65.435 49.7972 64.892 48.7072 64.0956C47.6899 63.3354 46.1276 61.1272 45.6553 59.9688C45.6553 59.9688 47.7262 67.9328 52.6312 67.1364L52.4132 64.8558Z" fill="#013741"/>
<path d="M55.61 51.4618C56.482 53.7425 56.8817 56.2765 56.7 58.7019C56.5547 60.9101 55.8644 64.0595 53.866 65.3627C52.6307 66.1591 50.9231 66.0143 49.6514 65.2903C48.6341 64.7111 47.8711 63.8061 47.2535 62.8649C47.0718 62.5753 45.5095 60.1499 45.7638 59.8965C45.3641 60.2947 44.7465 60.3309 44.3105 60.0413C43.8745 59.7517 43.6202 59.2087 43.5838 58.7019C43.5475 58.2675 43.6565 57.8331 43.9835 57.5435C44.4195 57.1453 45.1098 57.2177 45.6911 57.3263C44.9645 55.6249 44.4921 51.9324 45.6185 50.412C46.7085 48.9278 48.6341 48.059 50.4871 48.2762C51.2864 48.3486 52.0494 48.6382 52.8124 48.8554C53.539 49.0364 54.2657 49.1812 54.738 49.7966C55.1014 50.3396 55.392 50.8826 55.61 51.4618Z" fill="#D68060"/>
<path d="M45.3281 59.5714C45.3281 59.5714 45.2918 57.6166 44.0928 57.9062" stroke="black" stroke-width="0.5164" stroke-miterlimit="10"/>
<path d="M50.2695 61.8877C50.2695 61.8877 51.1415 63.1547 52.5585 62.8289" stroke="black" stroke-width="0.5164" stroke-miterlimit="10"/>
<path d="M53.6486 57.6162C53.576 58.6298 53.903 59.6796 54.557 60.476C54.666 60.5846 54.775 60.7294 54.775 60.9104C54.775 60.9828 54.7386 61.0552 54.7023 61.0914C54.4843 61.4534 54.0483 61.6344 53.6486 61.5982" stroke="black" stroke-width="0.5164" stroke-miterlimit="10"/>
<path d="M54.9197 57.4352C54.956 57.7248 55.1377 57.9782 55.392 57.942C55.6463 57.942 55.828 57.6524 55.7917 57.3628C55.7553 57.0732 55.5737 56.8198 55.3193 56.856C55.065 56.856 54.8833 57.1094 54.9197 57.4352Z" fill="#013741"/>
<path d="M51.4688 57.6159C51.5051 57.9055 51.6867 58.1589 51.9411 58.1227C52.1954 58.1227 52.3771 57.8331 52.3407 57.5435C52.3044 57.2539 52.1227 57.0005 51.8684 57.0367C51.6504 57.0367 51.4688 57.2901 51.4688 57.6159Z" fill="#013741"/>
<path d="M54.7023 55.9872C54.6296 55.9872 54.5206 55.951 54.4843 55.8786C54.4479 55.8424 54.4479 55.8062 54.4843 55.7338C54.5206 55.589 54.7023 55.5166 54.8476 55.4804C55.3926 55.3718 55.9739 55.4804 56.4463 55.7338C56.5916 55.8062 56.8096 55.9148 56.7733 56.0958C56.7733 56.2406 56.5916 56.2406 56.4826 56.2406C56.1193 56.132 55.7196 56.0596 55.3563 56.0234C55.1383 56.0234 54.9203 56.0234 54.7023 55.9872Z" fill="#013741"/>
<path d="M52.5946 56.0594C52.6673 56.0594 52.7763 56.0232 52.8126 55.9508C52.8489 55.9146 52.8126 55.8784 52.8126 55.806C52.7763 55.6612 52.5946 55.5888 52.413 55.5888C51.868 55.4802 51.2866 55.5888 50.8143 55.8422C50.669 55.9146 50.4873 56.0594 50.4873 56.2042C50.4873 56.349 50.669 56.349 50.778 56.3128C51.1413 56.2042 51.541 56.1318 51.9043 56.0956C52.1586 56.1318 52.3766 56.0956 52.5946 56.0594Z" fill="#013741"/>
<path d="M47.0353 58.3757C47.108 58.3033 47.1443 58.1947 47.1443 58.1223C47.2896 57.3983 47.0716 56.638 46.9626 55.914C46.8536 55.19 46.8173 54.3936 47.2533 53.7782C47.762 53.0542 48.7066 52.837 49.5786 52.8732C50.4506 52.9456 51.2863 53.2352 52.1583 53.3076C52.9939 53.38 54.2292 53.199 54.9922 52.8732C57.4992 51.751 53.4299 48.0586 51.8676 47.407C51.1046 47.0812 51.4316 47.6966 50.6323 47.769C50.2326 47.8052 49.7966 47.8414 49.3969 47.95C49.2153 47.9862 49.0336 48.0948 48.8156 48.0948C48.634 48.0948 48.4886 48.1672 48.3433 48.2396C48.1616 48.312 47.98 48.4206 47.8346 48.5292C47.0353 48.9998 46.3087 49.5066 45.6183 50.122C44.601 50.9908 43.62 52.1854 43.729 53.561C43.8017 54.4298 44.3103 55.2624 44.6737 56.0588C44.928 56.6743 45.3277 57.1087 45.8 57.5431C46.018 57.7603 46.236 57.9775 46.454 58.1947C46.5993 58.3033 46.8536 58.5205 47.0353 58.3757Z" fill="#013741"/>
<path d="M53.2491 57.7969C53.2491 56.9281 52.5224 56.2041 51.6504 56.2041C50.7784 56.2041 50.0518 56.9281 50.0518 57.7969C50.0518 58.6657 50.7784 59.3897 51.6504 59.3897C52.5587 59.3897 53.2491 58.6657 53.2491 57.7969Z" stroke="white" stroke-width="0.6992" stroke-miterlimit="10"/>
<path d="M57.5362 57.7969C57.5362 56.9281 56.8095 56.2041 55.9375 56.2041C55.0655 56.2041 54.3389 56.9281 54.3389 57.7969C54.3389 58.6657 55.0655 59.3897 55.9375 59.3897C56.8095 59.3897 57.5362 58.6657 57.5362 57.7969Z" stroke="white" stroke-width="0.6992" stroke-miterlimit="10"/>
<path d="M53.2119 57.5069C53.2119 57.1811 53.4662 56.9277 53.7932 56.9277C54.1202 56.9277 54.3746 57.1811 54.3746 57.5069" stroke="white" stroke-width="0.7384" stroke-miterlimit="10"/>
<path d="M50.2694 57.0371C50.1968 57.0371 45.1465 57.1819 45.1465 57.1819" stroke="white" stroke-width="0.7384" stroke-miterlimit="10"/>
<path d="M63.8942 77.8875C65.2386 81.3265 66.3285 84.8379 67.2005 88.4218C70.6158 87.372 74.0311 86.3222 77.4464 85.3085C77.9187 87.8064 78.4274 90.268 78.8997 92.7658C73.9948 95.4808 68.9082 97.8338 63.6762 99.861C62.9859 100.114 62.2229 100.368 61.5689 100.078C60.8059 99.7162 60.5516 98.7388 60.4063 97.9062C59.171 91.2092 57.9356 84.5121 56.664 77.8151C56.3007 75.8965 55.9373 73.9779 55.3923 72.1317C55.138 71.2991 54.7383 70.5027 54.593 69.6701C54.484 69.1271 54.4477 68.4393 54.7747 68.0049C55.1743 67.4619 55.9373 67.6791 56.446 67.8963C57.1726 68.2221 57.863 68.7289 58.4806 69.2357C59.6796 70.2855 60.6969 71.5525 61.4963 72.8919C62.3319 74.3037 63.0223 75.7879 63.6399 77.3083C63.7489 77.4893 63.8216 77.7065 63.8942 77.8875Z" fill="#FFB940"/>
<path d="M59.4618 75.0644C59.3528 74.7386 59.2438 74.3766 59.1348 74.0508C58.4445 72.096 57.6815 69.7792 56.0828 68.3674C55.1745 67.571 53.9029 67.0641 52.7039 67.3899C52.9946 68.6208 52.1952 69.9602 51.0689 70.5032C49.9426 71.0462 48.5256 70.8652 47.4356 70.2498C46.3456 69.5982 45.5463 68.5484 45.0376 67.3899C44.965 67.2089 44.856 67.0279 44.6743 66.9193C44.4927 66.8469 44.2747 66.8831 44.093 66.9555C42.785 67.3175 41.477 67.7158 40.3144 68.3674C37.2624 70.0688 36.5357 73.4354 37.1534 76.6934C37.4804 78.5034 38.1344 80.241 38.7157 82.0148C40.8594 88.4947 41.9493 95.2279 43.112 101.961C43.1483 102.178 43.1847 102.359 43.33 102.504C43.439 102.613 43.6207 102.685 43.8023 102.721C50.4512 104.423 57.7905 103.264 63.5674 99.6081C63.7491 99.4995 63.9671 99.3547 64.0398 99.1375C64.1124 98.9203 64.0761 98.7031 64.0398 98.4859C63.6764 96.2415 63.2768 93.9971 62.9134 91.7165C62.2958 88.0241 61.6781 84.3316 60.8788 80.6754C60.5155 78.7568 60.0431 76.8744 59.4618 75.0644Z" fill="#FFB940"/>
<path d="M53.6852 66.9915C54.0485 68.7291 53.0312 70.6115 51.5778 71.4079C50.0882 72.1681 48.2716 71.9509 46.8546 71.0097C45.4376 70.1047 44.4203 68.5843 43.7299 66.9553C43.6209 66.7019 43.5119 66.4123 43.2939 66.3037" stroke="black" stroke-width="0.5164" stroke-miterlimit="10"/>
<path d="M37.1533 76.6211C37.4803 78.4311 38.1343 80.1687 38.7156 81.9425C40.8593 88.4223 41.9493 95.1556 43.1119 101.889C43.1482 102.106 43.1846 102.287 43.3299 102.432C43.4389 102.54 43.6206 102.613 43.8022 102.649C50.4512 104.35 57.7904 103.192 63.5673 99.5358C63.749 99.4272 63.967 99.2824 64.0397 99.0652C64.1123 98.848 64.076 98.6308 64.0397 98.4136C63.6763 96.1692 63.2767 93.9248 62.9134 91.6441C62.2957 87.9517 61.678 84.2593 60.8787 80.6031C60.4791 78.7207 60.0067 76.8383 59.4254 75.0283C59.3164 74.7025 59.2074 74.3405 59.0984 74.0147C58.4081 72.0598 57.6451 69.743 56.0464 68.3312C55.7921 68.0778 55.4651 67.8968 55.1744 67.7158" stroke="black" stroke-width="0.5164" stroke-miterlimit="10"/>
<path d="M97.0303 133.455L103.243 141.926C103.243 141.926 116.614 138.016 120.138 132.55C120.138 132.55 118.067 130.486 107.712 131.826L104.297 127.301L97.0303 133.455Z" fill="#D68060"/>
<path d="M40.6777 105.798C40.6777 105.798 42.1674 114.161 48.3803 115.066C53.2853 115.79 66.1471 112.676 71.27 111.337C72.6144 110.975 74.0313 111.409 75.0123 112.387L96.5214 134.867L107.094 127.772L81.4796 92.8386C81.4796 92.8386 67.5641 91.7164 40.6777 105.798Z" fill="#9E4963"/>
<path d="M46.3824 97.0742C46.3824 97.0742 45.4378 106.016 51.6507 106.957C56.5556 107.681 67.7825 104.169 72.9418 102.83C74.2861 102.468 75.7031 102.902 76.6841 103.88L96.4855 126.614" stroke="black" stroke-width="0.5164" stroke-miterlimit="10"/>
<path d="M90.9629 130.451L104.188 121.546" stroke="black" stroke-width="0.5164" stroke-miterlimit="10"/>
<path d="M58.3723 95.4447C59.7893 94.7569 61.1699 94.1053 62.5869 93.4175C63.1682 93.1279 63.7496 92.8745 64.3672 92.8021C64.8395 92.7659 65.3119 92.8745 65.7479 92.9469C67.5645 93.3451 69.9261 94.0691 71.7065 93.0193C73.5231 91.9332 72.3968 90.3404 71.1251 89.3992C69.5265 88.2046 67.4918 87.4806 65.4572 87.734C64.8032 87.8064 64.1856 87.9874 63.5679 88.2046C61.2426 88.9286 58.9536 89.7974 56.7373 90.811C57.1006 92.1867 57.5003 93.7071 58.0453 95.0103C58.1543 95.2637 58.1906 95.1913 58.3723 95.4447Z" fill="#D68060"/>
<path d="M44.3839 91.7521C44.7472 93.3088 45.6919 94.431 47.6902 93.6708C51.3235 92.2951 54.9568 90.9195 58.6627 89.7249C58.8807 89.6525 59.2804 89.5077 59.3531 89.7249C60.2251 92.1503 60.879 94.6844 61.533 97.1822C61.5694 97.2546 61.5694 97.3632 61.533 97.4356C61.4967 97.508 61.4604 97.5442 61.3877 97.5804C57.2821 100.187 53.1401 102.721 48.7439 104.748C48.4532 104.893 48.1625 105.001 47.8719 105.146C43.9842 106.848 38.607 109.599 36.4633 104.024C34.574 99.0646 34.356 93.2363 34.4287 88.0235C34.465 84.9465 34.7194 81.8333 35.1917 78.7925C35.6277 75.9689 35.9547 72.6022 37.5533 70.1768C38.8613 68.1858 41.5499 67.7152 42.7853 70.0682C44.2022 72.7832 43.7299 76.6205 43.8389 79.5889C43.8389 81.6523 43.9842 83.7519 44.0569 85.8153C44.1296 87.7339 43.9479 89.8335 44.3839 91.7521Z" fill="#FFB940"/>
<path d="M40.2783 68.4756C41.2593 68.4394 42.204 68.91 42.7853 70.0684C44.2023 72.7834 43.7299 76.6206 43.8389 79.589C43.8389 81.6524 43.9843 83.752 44.0569 85.8155C44.1296 87.7703 43.9479 89.9061 44.3839 91.7885C44.7473 93.3451 45.6919 94.4673 47.6902 93.7071C51.3235 92.3315 54.9568 90.9559 58.6628 89.7613C58.8808 89.6889 59.2804 89.5441 59.3531 89.7613" stroke="black" stroke-width="0.5164" stroke-miterlimit="10"/>
<path d="M55.4658 90.9922L58.1181 99.644" stroke="black" stroke-width="0.5164" stroke-miterlimit="10"/>
<path d="M87.9108 91.4625L62.1144 96.6754C61.8601 96.7116 61.6058 96.5668 61.5694 96.3134L61.3151 95.1188C61.2788 94.8654 61.4241 94.612 61.6784 94.5758L87.4748 89.3629C87.7291 89.3267 87.9835 89.4715 88.0198 89.7249L88.2741 90.9195C88.3468 91.1729 88.1651 91.4263 87.9108 91.4625Z" fill="#CCCCCC"/>
<path d="M64.9845 95.4092L63.8582 95.6264C63.8219 95.6264 63.7856 95.6264 63.7856 95.5902L63.7129 95.1558C63.7129 95.1196 63.7129 95.0834 63.7492 95.0834L64.8755 94.8662C64.9119 94.8662 64.9482 94.8662 64.9482 94.9024L65.0209 95.3368C65.0209 95.373 65.0209 95.4092 64.9845 95.4092Z" fill="#787878"/>
<path d="M67.0187 95.0108L65.8924 95.228C65.8561 95.228 65.8197 95.228 65.8197 95.1918L65.7471 94.7574C65.7471 94.7212 65.7471 94.685 65.7834 94.685L66.9097 94.4678C66.9461 94.4678 66.9824 94.4678 66.9824 94.504L67.0551 94.9384C67.0914 94.9384 67.0551 94.9746 67.0187 95.0108Z" fill="#787878"/>
<path d="M101.39 67.1719L76.0664 72.2761V93.9238L101.39 88.7834V67.1719Z" fill="#8A8A8A"/>
<path d="M102.554 66.9189L77.2295 72.0594V93.6709L102.554 88.5667V66.9189Z" fill="#F2F2F2"/>
<path d="M92.121 82.76C93.4743 81.8275 93.8127 79.9785 92.8768 78.6301C91.9409 77.2817 90.0851 76.9445 88.7317 77.877C87.3784 78.8095 87.04 80.6585 87.9759 82.007C88.9118 83.3554 90.7676 83.6925 92.121 82.76Z" fill="#D9D9D9"/>
</g>
<defs>
<clipPath id="clip0_363_5664">
<rect width="172" height="149" fill="white" transform="translate(0.166992 0.817383)"/>
</clipPath>
</defs>
</svg>
